<svg width="45" height="45" viewBox="0 0 45 45" fill="none" xmlns="http://www.w3.org/2000/svg">
<path d="M30.3562 3.75H14.6438C7.81875 3.75 3.75 7.81875 3.75 14.6437V30.3375C3.75 37.1812 7.81875 41.25 14.6438 41.25H30.3375C37.1625 41.25 41.2312 37.1812 41.2312 30.3562V14.6437C41.25 7.81875 37.1812 3.75 30.3562 3.75ZM21.5625 32.3437C21.5625 33.0187 20.8875 33.4687 20.2688 33.2062C18 32.2312 15.0375 31.3312 12.975 31.0687L12.6187 31.0312C11.475 30.8812 10.5375 29.8125 10.5375 28.65V14.2125C10.5375 12.7687 11.7 11.7 13.125 11.8125C15.4687 12 18.9375 13.125 21.1125 14.3625C21.4125 14.5312 21.5625 14.85 21.5625 15.1687V32.3437ZM34.4625 28.6312C34.4625 29.7937 33.525 30.8625 32.3813 31.0125L31.9875 31.05C29.9437 31.3312 27 32.2125 24.7312 33.1687C24.1125 33.4312 23.4375 32.9812 23.4375 32.3062V15.15C23.4375 14.8125 23.6062 14.4937 23.9062 14.325C26.0812 13.1062 29.475 12.0187 31.7813 11.8125H31.8562C33.3 11.8125 34.4625 12.975 34.4625 14.4187V28.6312Z" fill="white"/>
</svg>
