<svg width="1440" height="1024" viewBox="0 0 1440 1024" fill="none" xmlns="http://www.w3.org/2000/svg">
<g clip-path="url(#clip0_45_29)">
<rect width="1440" height="1024" fill="#0A5F59"/>
<path d="M616.873 578.827L586.227 590.51C580.582 575.701 589.729 558.449 606.646 552L616.873 578.827Z" fill="#FFFAE8"/>
<path d="M1225.87 302.827L1195.23 314.51C1189.58 299.701 1198.73 282.449 1215.65 276L1225.87 302.827Z" fill="#FFFAE8"/>
<path d="M272.094 295C279.48 314.374 267.512 336.946 245.38 345.383L232 310.285L272.094 295Z" fill="#FFB600"/>
<path d="M1218.09 571C1225.48 590.374 1213.51 612.946 1191.38 621.383L1178 586.285L1218.09 571Z" fill="#FE5E33"/>
<path d="M113.659 14C117.649 24.466 111.184 36.6592 99.228 41.2171L91.9999 22.257L113.659 14Z" fill="#FE5E33"/>
<path d="M113.659 970C117.649 980.466 111.184 992.659 99.228 997.217L91.9999 978.257L113.659 970Z" fill="#FE5E33"/>
<path d="M24.1914 889.696L-31.4361 910.902C-41.6834 884.022 -25.079 852.706 5.62744 841L24.1914 889.696Z" fill="#FFFAE8"/>
<path d="M481.786 139.924L462.452 147.295C458.891 137.953 464.661 127.069 475.334 123L481.786 139.924Z" fill="#FFFAE8"/>
<path d="M944.786 222.924L925.452 230.295C921.89 220.953 927.661 210.069 938.334 206L944.786 222.924Z" fill="#FE5E33"/>
<path d="M944.786 222.924L925.452 230.295C921.89 220.953 927.661 210.069 938.334 206L944.786 222.924Z" fill="#FE5E33"/>
<path d="M98.7856 649.924L79.452 657.295C75.8904 647.953 81.6614 637.069 92.3336 633L98.7856 649.924Z" fill="#FE5E33"/>
<path d="M426.82 787L405 795.318L412.282 814.419C424.326 809.827 430.839 797.544 426.82 787Z" fill="#FFB600"/>
<path d="M946.82 868L925 876.318L932.282 895.419C944.326 890.827 950.839 878.544 946.82 868Z" fill="#FFB600"/>
<path d="M1170.82 911L1149 919.318L1156.28 938.419C1168.33 933.827 1174.84 921.544 1170.82 911Z" fill="#FFFAE8"/>
<path d="M1431.99 -14L1394 0.483251L1406.68 33.7404C1427.65 25.7456 1438.99 4.35794 1431.99 -14Z" fill="#FFB600"/>
<path d="M1431.99 -14L1394 0.483251L1406.68 33.7404C1427.65 25.7456 1438.99 4.35794 1431.99 -14Z" fill="#FFB600"/>
<path d="M744.991 -34L707 -19.5167L719.678 13.7404C740.65 5.74562 751.99 -15.6421 744.991 -34Z" fill="#FFB600"/>
<path d="M772.018 1030.47L812.609 1032.8L814.652 997.27C792.245 995.982 773.145 1010.86 772.018 1030.47Z" fill="#FE5E33"/>
<path d="M1474.19 816.696L1418.56 837.902C1408.32 811.022 1424.92 779.706 1455.63 768L1474.19 816.696Z" fill="#FFFAE8"/>
</g>
<defs>
<clipPath id="clip0_45_29">
<rect width="1440" height="1024" fill="white"/>
</clipPath>
</defs>
</svg>
