<svg width="232" height="186" viewBox="0 0 232 186" fill="none" xmlns="http://www.w3.org/2000/svg">
<path d="M96.0474 185.968C144.745 185.968 184.222 183.947 184.222 181.454C184.222 178.96 144.745 176.939 96.0474 176.939C47.3498 176.939 7.87262 178.96 7.87262 181.454C7.87262 183.947 47.3498 185.968 96.0474 185.968Z" fill="#0A5F59"/>
<path opacity="0.3" d="M96.0474 185.968C144.745 185.968 184.222 183.947 184.222 181.454C184.222 178.96 144.745 176.939 96.0474 176.939C47.3498 176.939 7.87262 178.96 7.87262 181.454C7.87262 183.947 47.3498 185.968 96.0474 185.968Z" fill="white"/>
<path d="M180.845 113.057H178.088H53.593H50.8352V118.567H53.593V174.614H178.088V118.567H180.845V113.057Z" fill="#0A5F59"/>
<path opacity="0.5" d="M180.845 113.057H178.088H53.593H50.8352V118.567H53.593V174.614H178.088V118.567H180.845V113.057Z" fill="white"/>
<path d="M56.9246 142.341H90.879V124.224H56.9246V142.341ZM57.614 124.888H90.1694V141.656H57.614V124.888Z" fill="white"/>
<path d="M99.092 142.341H133.051V124.224H99.092V142.341ZM99.7815 124.888H132.362V141.656H99.7815V124.888Z" fill="white"/>
<path d="M141.265 124.199V142.316H175.219V124.199H141.265ZM174.53 141.656H141.954V124.888H174.53V141.656Z" fill="white"/>
<path d="M56.9246 166.693H90.879V148.546H56.9246V166.693ZM57.614 149.235H90.1694V166.004H57.614V149.235Z" fill="white"/>
<path d="M99.092 166.693H133.051V148.546H99.092V166.693ZM99.7815 149.235H132.362V166.004H99.7815V149.235Z" fill="white"/>
<path d="M141.265 166.693H175.219V148.546H141.265V166.693ZM141.954 149.235H174.53V166.004H141.954V149.235Z" fill="white"/>
<path d="M74.2666 131.43C71.2219 131.43 68.7308 132.356 68.7308 133.499C68.7308 134.641 71.2018 135.567 74.2666 135.567C77.3314 135.567 79.7772 134.641 79.7772 133.499C79.7772 132.356 77.3113 131.43 74.2666 131.43Z" fill="white"/>
<path d="M116.233 131.43C113.188 131.43 110.697 132.356 110.697 133.499C110.697 134.641 113.168 135.567 116.233 135.567C119.298 135.567 121.743 134.641 121.743 133.499C121.743 132.356 119.278 131.43 116.233 131.43Z" fill="white"/>
<path d="M159.417 135.567C162.436 135.567 164.927 134.641 164.927 133.499C164.927 132.356 162.462 131.43 159.417 131.43C156.372 131.43 153.881 132.356 153.881 133.499C153.881 134.641 156.372 135.567 159.417 135.567Z" fill="white"/>
<path d="M74.2667 159.914C77.3101 159.914 79.7773 158.988 79.7773 157.846C79.7773 156.704 77.3101 155.778 74.2667 155.778C71.2232 155.778 68.756 156.704 68.756 157.846C68.756 158.988 71.2232 159.914 74.2667 159.914Z" fill="white"/>
<path d="M116.233 159.914C119.276 159.914 121.743 158.988 121.743 157.846C121.743 156.704 119.276 155.778 116.233 155.778C113.189 155.778 110.722 156.704 110.722 157.846C110.722 158.988 113.189 159.914 116.233 159.914Z" fill="white"/>
<path d="M159.417 159.914C162.46 159.914 164.927 158.988 164.927 157.846C164.927 156.704 162.46 155.778 159.417 155.778C156.373 155.778 153.906 156.704 153.906 157.846C153.906 158.988 156.373 159.914 159.417 159.914Z" fill="white"/>
<path d="M30.0861 118.471C30.0861 118.471 30.5089 116.927 30.524 116.826C30.685 115.653 30.3126 113.303 29.1149 112.714C28.9141 112.624 28.6964 112.576 28.476 112.576C28.2557 112.575 28.0377 112.621 27.8363 112.71C27.6348 112.799 27.4546 112.93 27.3072 113.094C27.1598 113.258 27.0487 113.451 26.9811 113.66C26.664 114.536 27.0666 115.618 27.5498 116.358C28.1134 117.233 30.0811 118.471 30.0861 118.471Z" fill="#0A5F59"/>
<path d="M7.34416 124.702C8.35066 124.848 10.409 124.244 10.575 124.199C10.9152 125.386 11.3356 126.55 11.8332 127.681C12.12 128.345 12.427 129 12.7441 129.659C12.5578 129.377 12.3817 129.13 12.3565 129.1C11.5815 128.204 9.55846 126.931 8.33053 127.45C8.1297 127.541 7.95049 127.674 7.8046 127.84C7.65871 128.006 7.54943 128.201 7.48389 128.412C7.41835 128.622 7.39803 128.845 7.42424 129.064C7.45046 129.283 7.52263 129.494 7.63604 129.684C8.08897 130.504 9.1458 130.907 10.0416 131.038C10.9374 131.169 12.7139 130.69 13.1819 130.534C13.3077 130.786 13.4285 131.038 13.5543 131.284C14.1532 132.482 14.7621 133.675 15.3157 134.862C15.517 135.285 15.6931 135.703 15.8743 136.121C15.7032 135.874 15.5623 135.668 15.5371 135.617C14.7621 134.722 12.739 133.448 11.5111 133.967C11.307 134.058 11.1249 134.193 10.9771 134.361C10.8294 134.529 10.7193 134.726 10.6545 134.941C10.5896 135.155 10.5714 135.38 10.6011 135.602C10.6308 135.824 10.7077 136.037 10.8267 136.226C11.2796 137.047 12.3364 137.454 13.2322 137.58C14.128 137.706 15.7485 137.278 16.2869 137.122C16.4581 137.555 16.6292 137.993 16.7902 138.42C16.8858 138.717 16.9965 138.994 17.072 139.296C17.1475 139.598 17.2381 139.885 17.3186 140.177C17.4545 140.745 17.6004 141.329 17.7162 141.883C17.8017 142.27 17.8772 142.643 17.9527 143.01C17.7615 142.592 17.374 141.782 17.3337 141.717C16.6996 140.71 14.8929 139.15 13.6096 139.477C13.3995 139.54 13.2047 139.645 13.0379 139.788C12.8711 139.93 12.7359 140.106 12.6411 140.303C12.5463 140.501 12.4939 140.716 12.4874 140.936C12.4808 141.155 12.5203 141.373 12.6031 141.576C12.9252 142.451 13.9317 143.015 14.7772 143.277C15.7082 143.559 17.7715 143.302 18.0282 143.277C18.149 143.891 18.2647 144.495 18.3654 145.063C18.7126 147.031 18.924 148.682 19.0599 149.839C19.085 150.046 19.1052 150.232 19.1203 150.403H15.1295L16.3826 174.79H23.5942L24.8473 150.403H21.1282C21.1534 150.348 21.1836 150.292 21.2088 150.232C21.712 149.17 22.4266 147.64 23.1916 145.773C23.4331 145.184 23.6948 144.55 23.9313 143.891C24.183 143.946 26.2211 144.359 27.1723 144.147C28.0379 143.951 29.0796 143.463 29.4671 142.607C29.5647 142.41 29.6196 142.194 29.6283 141.974C29.637 141.754 29.5993 141.535 29.5177 141.33C29.4361 141.126 29.3123 140.94 29.1545 140.787C28.9966 140.633 28.8082 140.515 28.6015 140.438C27.3434 140.016 25.426 141.445 24.7215 142.396C24.6812 142.457 24.2987 143.116 24.0622 143.533C24.1628 143.267 24.2635 143.03 24.3641 142.733C24.5654 142.185 24.7466 141.631 24.9479 141.037C25.0335 140.75 25.1241 140.459 25.2096 140.162C25.2952 139.865 25.3656 139.553 25.4461 139.246C25.6172 138.526 25.7582 137.791 25.8789 137.047C26.357 137.218 28.0681 137.817 28.9538 137.751C29.8395 137.686 30.9668 137.369 31.4701 136.584C31.5981 136.405 31.687 136.201 31.7311 135.986C31.7752 135.771 31.7734 135.549 31.726 135.334C31.6785 135.119 31.5863 134.917 31.4556 134.741C31.3248 134.564 31.1582 134.417 30.9668 134.309C29.7892 133.7 27.6755 134.812 26.8401 135.658C26.7848 135.708 26.2513 136.372 25.9645 136.745C26.0349 136.297 26.1054 135.854 26.1608 135.396C26.3268 134.082 26.4526 132.744 26.5785 131.415C26.6187 131.002 26.664 130.6 26.7093 130.192C26.8754 130.258 28.8934 131.008 29.8899 130.937C30.7705 130.877 31.9029 130.55 32.4061 129.77C32.5334 129.59 32.6218 129.386 32.6655 129.171C32.7092 128.955 32.7073 128.733 32.6599 128.518C32.6125 128.303 32.5206 128.101 32.3902 127.924C32.2599 127.747 32.0938 127.599 31.9029 127.49C30.7202 126.886 28.6116 127.993 27.7712 128.839C27.7057 128.904 26.9408 129.845 26.7647 130.117C26.8603 129.221 26.9609 128.33 27.1018 127.455C27.2803 126.265 27.5341 125.089 27.8617 123.932C27.9423 123.962 30.0459 124.757 31.0624 124.687C31.9431 124.621 33.0503 124.299 33.5787 123.514C33.7049 123.334 33.7917 123.129 33.8335 122.912C33.8754 122.696 33.8712 122.474 33.8214 122.259C33.7715 122.044 33.6771 121.843 33.5443 121.667C33.4114 121.492 33.2431 121.346 33.0503 121.239C31.8727 120.63 29.759 121.743 28.9186 122.588C28.8632 122.643 28.2794 123.373 28.0077 123.73L27.9423 123.695C28.3035 122.547 28.7684 121.433 29.3312 120.369C29.6332 119.78 29.9553 119.231 30.2774 118.703C30.6548 118.894 32.386 119.735 33.2969 119.77C34.2078 119.805 35.3099 119.604 35.9087 118.879C36.0543 118.714 36.1634 118.521 36.2291 118.311C36.2947 118.101 36.3154 117.879 36.2898 117.661C36.2641 117.443 36.1927 117.232 36.0803 117.043C35.9678 116.854 35.8167 116.691 35.637 116.564C34.5298 115.829 32.3105 116.71 31.3845 117.45C31.3342 117.49 30.8813 117.953 30.529 118.295C30.68 118.059 30.8309 117.817 30.9819 117.596C31.5355 116.76 32.0941 116.026 32.5923 115.387C32.8842 115.019 33.1509 114.697 33.4026 114.38C33.8706 114.38 35.7427 114.315 36.563 113.927C37.3833 113.54 38.2791 112.85 38.4753 111.914C38.5282 111.7 38.5354 111.477 38.4965 111.261C38.4576 111.044 38.3735 110.837 38.2496 110.655C38.1257 110.473 37.9648 110.318 37.7774 110.202C37.59 110.086 37.3803 110.011 37.1618 109.982C35.8433 109.841 34.2782 111.647 33.7951 112.729C33.7548 112.825 33.2918 114.36 33.2918 114.36H33.317C33.0704 114.642 32.8137 114.949 32.5219 115.291C32.0186 115.925 31.4298 116.645 30.8561 117.47C30.2244 118.354 29.6463 119.275 29.1249 120.228C28.5367 121.289 28.0432 122.401 27.6504 123.549V123.595C27.6504 123.207 27.6504 122.12 27.6504 122.035C27.4994 120.862 26.513 118.683 25.2096 118.441C24.9918 118.406 24.7691 118.418 24.5561 118.475C24.3431 118.532 24.1445 118.634 23.9734 118.773C23.8024 118.912 23.6627 119.086 23.5635 119.283C23.4643 119.48 23.4079 119.696 23.3979 119.916C23.3224 120.847 24.0018 121.783 24.6611 122.372C25.4059 123.036 27.4692 123.68 27.6353 123.73C27.2621 124.91 26.9695 126.114 26.7596 127.334C26.6338 128.043 26.5281 128.763 26.4325 129.483C26.4325 129.145 26.4325 128.844 26.4325 128.803C26.2815 127.631 25.3002 125.452 23.9968 125.21C23.7791 125.176 23.5567 125.188 23.344 125.245C23.1313 125.303 22.9331 125.404 22.7622 125.543C22.5913 125.682 22.4516 125.856 22.3522 126.053C22.2528 126.249 22.1958 126.465 22.1851 126.685C22.1096 127.616 22.7839 128.552 23.4432 129.14C24.1025 129.729 25.8638 130.323 26.3268 130.469L26.2211 131.304C26.0651 132.633 25.9091 133.962 25.7179 135.26C25.6474 135.718 25.5669 136.166 25.4864 136.614C25.4864 136.317 25.4864 136.065 25.4864 136.03C25.3354 134.852 24.349 132.673 23.0456 132.432C22.828 132.398 22.6056 132.41 22.3929 132.467C22.1802 132.524 21.9819 132.626 21.811 132.765C21.6402 132.904 21.5005 133.078 21.401 133.274C21.3016 133.471 21.2447 133.686 21.2339 133.906C21.1584 134.842 21.8328 135.773 22.4971 136.367C23.1614 136.961 24.7416 137.489 25.2952 137.666C25.1995 138.123 25.1039 138.581 24.9882 139.019C24.9026 139.321 24.8422 139.613 24.7416 139.905C24.6409 140.197 24.5503 140.489 24.4598 140.776C24.2585 141.324 24.0572 141.893 23.8508 142.421C23.7099 142.789 23.564 143.141 23.4231 143.493C23.4935 143.035 23.6193 142.144 23.6193 142.069C23.6062 141.027 23.3255 140.007 22.8041 139.105C22.8057 138.989 22.7973 138.872 22.7789 138.758C22.7516 138.539 22.6785 138.329 22.5646 138.14C22.4506 137.952 22.2983 137.789 22.1174 137.663C21.9366 137.538 21.7313 137.451 21.515 137.41C21.2986 137.369 21.0759 137.374 20.8615 137.424C19.5782 137.766 18.768 140.016 18.7076 141.198C18.7076 141.269 18.7479 142.029 18.7831 142.507C18.7227 142.23 18.6623 141.958 18.5918 141.671C18.456 141.108 18.305 140.544 18.1439 139.94C18.0584 139.648 17.9678 139.356 17.8823 139.065C17.7967 138.773 17.6759 138.466 17.5702 138.164C17.3186 137.474 17.0267 136.785 16.7197 136.095C17.223 135.975 18.9693 135.527 19.6738 134.988C20.3784 134.45 21.1232 133.569 21.1131 132.633C21.1194 132.413 21.0794 132.194 20.9955 131.99C20.9117 131.787 20.786 131.603 20.6265 131.451C20.467 131.299 20.2774 131.183 20.0699 131.109C19.8624 131.035 19.6418 131.006 19.4222 131.023C18.1037 131.169 16.9563 133.267 16.7197 134.43C16.7197 134.5 16.6241 135.351 16.5889 135.819C16.4027 135.406 16.2165 134.993 16.0102 134.586C15.4214 133.398 14.7923 132.215 14.1632 131.033L13.5945 129.946C13.7707 129.905 15.8692 129.417 16.6594 128.813C17.3639 128.275 18.1037 127.389 18.0987 126.453C18.1011 126.217 18.0503 125.983 17.9499 125.769C17.8495 125.555 17.7022 125.367 17.5188 125.218C17.3355 125.069 17.1209 124.963 16.8911 124.909C16.6612 124.854 16.422 124.852 16.1913 124.903C14.8728 125.049 13.7304 127.148 13.4889 128.305C13.4889 128.396 13.3631 129.619 13.348 129.931C12.9353 129.135 12.5277 128.335 12.1603 127.53C11.6544 126.445 11.2222 125.327 10.8669 124.183C10.9474 124.183 13.1416 123.68 13.9468 123.046C14.6514 122.508 15.3962 121.627 15.3861 120.691C15.3918 120.471 15.3511 120.252 15.2666 120.048C15.1821 119.845 15.0558 119.662 14.8959 119.51C14.7359 119.359 14.5459 119.243 14.3382 119.17C14.1305 119.096 13.9097 119.068 13.6902 119.085C12.3716 119.231 11.2293 121.33 10.9927 122.487C10.9927 122.563 10.8871 123.494 10.8569 123.942H10.7864C10.4555 122.79 10.2282 121.611 10.107 120.419C10.0366 119.76 10.0013 119.126 9.9812 118.512C10.3989 118.461 12.3062 118.205 13.0963 117.727C13.8864 117.249 14.6916 116.479 14.7873 115.548C14.817 115.329 14.8005 115.107 14.7388 114.895C14.6772 114.683 14.5719 114.487 14.4295 114.319C14.2872 114.15 14.1112 114.014 13.9127 113.918C13.7143 113.822 13.4979 113.768 13.2775 113.761C11.9489 113.761 10.5851 115.724 10.2177 116.846C10.2177 116.911 10.0668 117.556 9.97617 118.024C9.97617 117.747 9.97617 117.46 9.97617 117.193C9.97617 116.187 10.0416 115.271 10.107 114.461C10.1473 113.998 10.1875 113.58 10.2379 113.192C10.6203 112.926 12.1552 111.844 12.6233 111.069C13.0913 110.294 13.4637 109.227 13.1265 108.356C13.0536 108.148 12.9374 107.958 12.7858 107.798C12.6341 107.638 12.4504 107.511 12.2465 107.427C12.0427 107.343 11.8234 107.303 11.603 107.31C11.3826 107.316 11.166 107.369 10.9676 107.465C9.78996 108.074 9.45782 110.445 9.67422 111.617C9.67422 111.718 10.1372 113.263 10.1775 113.253C10.1221 113.63 10.0718 114.033 10.0265 114.471C9.94597 115.281 9.86042 116.202 9.83526 117.208C9.79843 118.293 9.82531 119.378 9.91577 120.459C10.0076 121.671 10.2081 122.872 10.5146 124.048V124.093C10.3083 123.761 9.69435 122.865 9.63899 122.805C8.86398 121.909 6.84091 120.63 5.61297 121.149C5.41284 121.241 5.23428 121.374 5.08887 121.539C4.94347 121.704 4.83448 121.899 4.76899 122.109C4.70349 122.319 4.68296 122.541 4.70871 122.759C4.73447 122.978 4.80594 123.189 4.91848 123.378C5.39154 124.148 6.4685 124.576 7.34416 124.702ZM20.4941 142.084C21.1735 142.819 22.9097 143.679 23.1362 143.79C22.8997 144.369 22.6632 144.933 22.4317 145.461C21.6365 147.298 20.9219 148.792 20.3784 149.834C20.2677 150.041 20.1721 150.227 20.0865 150.398H19.9959C19.9959 150.197 19.9406 149.975 19.9104 149.723C19.7493 148.556 19.4927 146.89 19.1001 144.912C18.9793 144.283 18.8334 143.619 18.6824 142.935C19.3019 142.685 19.9067 142.402 20.4941 142.084Z" fill="#0A5F59"/>
<path d="M6.53895 117.963C7.4901 118.376 9.82015 118.326 9.82015 118.326C9.82015 118.326 9.3169 116.816 9.27664 116.71C8.77339 115.638 7.15292 113.877 5.83943 114.053C5.622 114.089 5.41453 114.17 5.23042 114.291C5.04631 114.412 4.88967 114.571 4.77062 114.756C4.65157 114.942 4.57275 115.15 4.53928 115.368C4.5058 115.586 4.5184 115.808 4.57627 116.021C4.7977 116.932 5.72871 117.606 6.53895 117.963Z" fill="#0A5F59"/>
<path opacity="0.5" d="M7.34416 124.702C8.35066 124.848 10.409 124.244 10.575 124.199C10.9152 125.386 11.3356 126.55 11.8332 127.681C12.12 128.345 12.427 129 12.7441 129.659C12.5578 129.377 12.3817 129.13 12.3565 129.1C11.5815 128.204 9.55846 126.931 8.33053 127.45C8.1297 127.541 7.95049 127.674 7.8046 127.84C7.65871 128.006 7.54943 128.201 7.48389 128.412C7.41835 128.622 7.39803 128.845 7.42424 129.064C7.45046 129.283 7.52263 129.494 7.63604 129.684C8.08897 130.504 9.1458 130.907 10.0416 131.038C10.9374 131.169 12.7139 130.69 13.1819 130.534C13.3077 130.786 13.4285 131.038 13.5543 131.284C14.1532 132.482 14.7621 133.675 15.3157 134.862C15.517 135.285 15.6931 135.703 15.8743 136.121C15.7032 135.874 15.5623 135.668 15.5371 135.617C14.7621 134.722 12.739 133.448 11.5111 133.967C11.307 134.058 11.1249 134.193 10.9771 134.361C10.8294 134.529 10.7193 134.726 10.6545 134.941C10.5896 135.155 10.5714 135.38 10.6011 135.602C10.6308 135.824 10.7077 136.037 10.8267 136.226C11.2796 137.047 12.3364 137.454 13.2322 137.58C14.128 137.706 15.7485 137.278 16.2869 137.122C16.4581 137.555 16.6292 137.993 16.7902 138.42C16.8858 138.717 16.9965 138.994 17.072 139.296C17.1475 139.598 17.2381 139.885 17.3186 140.177C17.4545 140.745 17.6004 141.329 17.7162 141.883C17.8017 142.27 17.8772 142.643 17.9527 143.01C17.7615 142.592 17.374 141.782 17.3337 141.717C16.6996 140.71 14.8929 139.15 13.6096 139.477C13.3995 139.54 13.2047 139.645 13.0379 139.788C12.8711 139.93 12.7359 140.106 12.6411 140.303C12.5463 140.501 12.4939 140.716 12.4874 140.936C12.4808 141.155 12.5203 141.373 12.6031 141.576C12.9252 142.451 13.9317 143.015 14.7772 143.277C15.7082 143.559 17.7715 143.302 18.0282 143.277C18.149 143.891 18.2647 144.495 18.3654 145.063C18.7126 147.031 18.924 148.682 19.0599 149.839C19.085 150.046 19.1052 150.232 19.1203 150.403H15.1295L16.3826 174.79H23.5942L24.8473 150.403H21.1282C21.1534 150.348 21.1836 150.292 21.2088 150.232C21.712 149.17 22.4266 147.64 23.1916 145.773C23.4331 145.184 23.6948 144.55 23.9313 143.891C24.183 143.946 26.2211 144.359 27.1723 144.147C28.0379 143.951 29.0796 143.463 29.4671 142.607C29.5647 142.41 29.6196 142.194 29.6283 141.974C29.637 141.754 29.5993 141.535 29.5177 141.33C29.4361 141.126 29.3123 140.94 29.1545 140.787C28.9966 140.633 28.8082 140.515 28.6015 140.438C27.3434 140.016 25.426 141.445 24.7215 142.396C24.6812 142.457 24.2987 143.116 24.0622 143.533C24.1628 143.267 24.2635 143.03 24.3641 142.733C24.5654 142.185 24.7466 141.631 24.9479 141.037C25.0335 140.75 25.1241 140.459 25.2096 140.162C25.2952 139.865 25.3656 139.553 25.4461 139.246C25.6172 138.526 25.7582 137.791 25.8789 137.047C26.357 137.218 28.0681 137.817 28.9538 137.751C29.8395 137.686 30.9668 137.369 31.4701 136.584C31.5981 136.405 31.687 136.201 31.7311 135.986C31.7752 135.771 31.7734 135.549 31.726 135.334C31.6785 135.119 31.5863 134.917 31.4556 134.741C31.3248 134.564 31.1582 134.417 30.9668 134.309C29.7892 133.7 27.6755 134.812 26.8401 135.658C26.7848 135.708 26.2513 136.372 25.9645 136.745C26.0349 136.297 26.1054 135.854 26.1608 135.396C26.3268 134.082 26.4526 132.744 26.5785 131.415C26.6187 131.002 26.664 130.6 26.7093 130.192C26.8754 130.258 28.8934 131.008 29.8899 130.937C30.7705 130.877 31.9029 130.55 32.4061 129.77C32.5334 129.59 32.6218 129.386 32.6655 129.171C32.7092 128.955 32.7073 128.733 32.6599 128.518C32.6125 128.303 32.5206 128.101 32.3902 127.924C32.2599 127.747 32.0938 127.599 31.9029 127.49C30.7202 126.886 28.6116 127.993 27.7712 128.839C27.7057 128.904 26.9408 129.845 26.7647 130.117C26.8603 129.221 26.9609 128.33 27.1018 127.455C27.2803 126.265 27.5341 125.089 27.8617 123.932C27.9423 123.962 30.0459 124.757 31.0624 124.687C31.9431 124.621 33.0503 124.299 33.5787 123.514C33.7049 123.334 33.7917 123.129 33.8335 122.912C33.8754 122.696 33.8712 122.474 33.8214 122.259C33.7715 122.044 33.6771 121.843 33.5443 121.667C33.4114 121.492 33.2431 121.346 33.0503 121.239C31.8727 120.63 29.759 121.743 28.9186 122.588C28.8632 122.643 28.2794 123.373 28.0077 123.73L27.9423 123.695C28.3035 122.547 28.7684 121.433 29.3312 120.369C29.6332 119.78 29.9553 119.231 30.2774 118.703C30.6548 118.894 32.386 119.735 33.2969 119.77C34.2078 119.805 35.3099 119.604 35.9087 118.879C36.0543 118.714 36.1634 118.521 36.2291 118.311C36.2947 118.101 36.3154 117.879 36.2898 117.661C36.2641 117.443 36.1927 117.232 36.0803 117.043C35.9678 116.854 35.8167 116.691 35.637 116.564C34.5298 115.829 32.3105 116.71 31.3845 117.45C31.3342 117.49 30.8813 117.953 30.529 118.295C30.68 118.059 30.8309 117.817 30.9819 117.596C31.5355 116.76 32.0941 116.026 32.5923 115.387C32.8842 115.019 33.1509 114.697 33.4026 114.38C33.8706 114.38 35.7427 114.315 36.563 113.927C37.3833 113.54 38.2791 112.85 38.4753 111.914C38.5282 111.7 38.5354 111.477 38.4965 111.261C38.4576 111.044 38.3735 110.837 38.2496 110.655C38.1257 110.473 37.9648 110.318 37.7774 110.202C37.59 110.086 37.3803 110.011 37.1618 109.982C35.8433 109.841 34.2782 111.647 33.7951 112.729C33.7548 112.825 33.2918 114.36 33.2918 114.36H33.317C33.0704 114.642 32.8137 114.949 32.5219 115.291C32.0186 115.925 31.4298 116.645 30.8561 117.47C30.2244 118.354 29.6463 119.275 29.1249 120.228C28.5367 121.289 28.0432 122.401 27.6504 123.549V123.595C27.6504 123.207 27.6504 122.12 27.6504 122.035C27.4994 120.862 26.513 118.683 25.2096 118.441C24.9918 118.406 24.7691 118.418 24.5561 118.475C24.3431 118.532 24.1445 118.634 23.9734 118.773C23.8024 118.912 23.6627 119.086 23.5635 119.283C23.4643 119.48 23.4079 119.696 23.3979 119.916C23.3224 120.847 24.0018 121.783 24.6611 122.372C25.4059 123.036 27.4692 123.68 27.6353 123.73C27.2621 124.91 26.9695 126.114 26.7596 127.334C26.6338 128.043 26.5281 128.763 26.4325 129.483C26.4325 129.145 26.4325 128.844 26.4325 128.803C26.2815 127.631 25.3002 125.452 23.9968 125.21C23.7791 125.176 23.5567 125.188 23.344 125.245C23.1313 125.303 22.9331 125.404 22.7622 125.543C22.5913 125.682 22.4516 125.856 22.3522 126.053C22.2528 126.249 22.1958 126.465 22.1851 126.685C22.1096 127.616 22.7839 128.552 23.4432 129.14C24.1025 129.729 25.8638 130.323 26.3268 130.469L26.2211 131.304C26.0651 132.633 25.9091 133.962 25.7179 135.26C25.6474 135.718 25.5669 136.166 25.4864 136.614C25.4864 136.317 25.4864 136.065 25.4864 136.03C25.3354 134.852 24.349 132.673 23.0456 132.432C22.828 132.398 22.6056 132.41 22.3929 132.467C22.1802 132.524 21.9819 132.626 21.811 132.765C21.6402 132.904 21.5005 133.078 21.401 133.274C21.3016 133.471 21.2447 133.686 21.2339 133.906C21.1584 134.842 21.8328 135.773 22.4971 136.367C23.1614 136.961 24.7416 137.489 25.2952 137.666C25.1995 138.123 25.1039 138.581 24.9882 139.019C24.9026 139.321 24.8422 139.613 24.7416 139.905C24.6409 140.197 24.5503 140.489 24.4598 140.776C24.2585 141.324 24.0572 141.893 23.8508 142.421C23.7099 142.789 23.564 143.141 23.4231 143.493C23.4935 143.035 23.6193 142.144 23.6193 142.069C23.6062 141.027 23.3255 140.007 22.8041 139.105C22.8057 138.989 22.7973 138.872 22.7789 138.758C22.7516 138.539 22.6785 138.329 22.5646 138.14C22.4506 137.952 22.2983 137.789 22.1174 137.663C21.9366 137.538 21.7313 137.451 21.515 137.41C21.2986 137.369 21.0759 137.374 20.8615 137.424C19.5782 137.766 18.768 140.016 18.7076 141.198C18.7076 141.269 18.7479 142.029 18.7831 142.507C18.7227 142.23 18.6623 141.958 18.5918 141.671C18.456 141.108 18.305 140.544 18.1439 139.94C18.0584 139.648 17.9678 139.356 17.8823 139.065C17.7967 138.773 17.6759 138.466 17.5702 138.164C17.3186 137.474 17.0267 136.785 16.7197 136.095C17.223 135.975 18.9693 135.527 19.6738 134.988C20.3784 134.45 21.1232 133.569 21.1131 132.633C21.1194 132.413 21.0794 132.194 20.9955 131.99C20.9117 131.787 20.786 131.603 20.6265 131.451C20.467 131.299 20.2774 131.183 20.0699 131.109C19.8624 131.035 19.6418 131.006 19.4222 131.023C18.1037 131.169 16.9563 133.267 16.7197 134.43C16.7197 134.5 16.6241 135.351 16.5889 135.819C16.4027 135.406 16.2165 134.993 16.0102 134.586C15.4214 133.398 14.7923 132.215 14.1632 131.033L13.5945 129.946C13.7707 129.905 15.8692 129.417 16.6594 128.813C17.3639 128.275 18.1037 127.389 18.0987 126.453C18.1011 126.217 18.0503 125.983 17.9499 125.769C17.8495 125.555 17.7022 125.367 17.5188 125.218C17.3355 125.069 17.1209 124.963 16.8911 124.909C16.6612 124.854 16.422 124.852 16.1913 124.903C14.8728 125.049 13.7304 127.148 13.4889 128.305C13.4889 128.396 13.3631 129.619 13.348 129.931C12.9353 129.135 12.5277 128.335 12.1603 127.53C11.6544 126.445 11.2222 125.327 10.8669 124.183C10.9474 124.183 13.1416 123.68 13.9468 123.046C14.6514 122.508 15.3962 121.627 15.3861 120.691C15.3918 120.471 15.3511 120.252 15.2666 120.048C15.1821 119.845 15.0558 119.662 14.8959 119.51C14.7359 119.359 14.5459 119.243 14.3382 119.17C14.1305 119.096 13.9097 119.068 13.6902 119.085C12.3716 119.231 11.2293 121.33 10.9927 122.487C10.9927 122.563 10.8871 123.494 10.8569 123.942H10.7864C10.4555 122.79 10.2282 121.611 10.107 120.419C10.0366 119.76 10.0013 119.126 9.9812 118.512C10.3989 118.461 12.3062 118.205 13.0963 117.727C13.8864 117.249 14.6916 116.479 14.7873 115.548C14.817 115.329 14.8005 115.107 14.7388 114.895C14.6772 114.683 14.5719 114.487 14.4295 114.319C14.2872 114.15 14.1112 114.014 13.9127 113.918C13.7143 113.822 13.4979 113.768 13.2775 113.761C11.9489 113.761 10.5851 115.724 10.2177 116.846C10.2177 116.911 10.0668 117.556 9.97617 118.024C9.97617 117.747 9.97617 117.46 9.97617 117.193C9.97617 116.187 10.0416 115.271 10.107 114.461C10.1473 113.998 10.1875 113.58 10.2379 113.192C10.6203 112.926 12.1552 111.844 12.6233 111.069C13.0913 110.294 13.4637 109.227 13.1265 108.356C13.0536 108.148 12.9374 107.958 12.7858 107.798C12.6341 107.638 12.4504 107.511 12.2465 107.427C12.0427 107.343 11.8234 107.303 11.603 107.31C11.3826 107.316 11.166 107.369 10.9676 107.465C9.78996 108.074 9.45782 110.445 9.67422 111.617C9.67422 111.718 10.1372 113.263 10.1775 113.253C10.1221 113.63 10.0718 114.033 10.0265 114.471C9.94597 115.281 9.86042 116.202 9.83526 117.208C9.79843 118.293 9.82531 119.378 9.91577 120.459C10.0076 121.671 10.2081 122.872 10.5146 124.048V124.093C10.3083 123.761 9.69435 122.865 9.63899 122.805C8.86398 121.909 6.84091 120.63 5.61297 121.149C5.41284 121.241 5.23428 121.374 5.08887 121.539C4.94347 121.704 4.83448 121.899 4.76899 122.109C4.70349 122.319 4.68296 122.541 4.70871 122.759C4.73447 122.978 4.80594 123.189 4.91848 123.378C5.39154 124.148 6.4685 124.576 7.34416 124.702ZM20.4941 142.084C21.1735 142.819 22.9097 143.679 23.1362 143.79C22.8997 144.369 22.6632 144.933 22.4317 145.461C21.6365 147.298 20.9219 148.792 20.3784 149.834C20.2677 150.041 20.1721 150.227 20.0865 150.398H19.9959C19.9959 150.197 19.9406 149.975 19.9104 149.723C19.7493 148.556 19.4927 146.89 19.1001 144.912C18.9793 144.283 18.8334 143.619 18.6824 142.935C19.3019 142.685 19.9067 142.402 20.4941 142.084Z" fill="white"/>
<path opacity="0.3" d="M30.0861 118.471C30.0861 118.471 30.5089 116.927 30.524 116.826C30.685 115.653 30.3126 113.303 29.1149 112.714C28.9141 112.624 28.6964 112.576 28.476 112.576C28.2557 112.575 28.0377 112.621 27.8363 112.71C27.6348 112.799 27.4546 112.93 27.3072 113.094C27.1598 113.258 27.0487 113.451 26.9811 113.66C26.664 114.536 27.0666 115.618 27.5498 116.358C28.1134 117.233 30.0811 118.471 30.0861 118.471Z" fill="white"/>
<path opacity="0.3" d="M6.53895 117.963C7.4901 118.376 9.82015 118.326 9.82015 118.326C9.82015 118.326 9.3169 116.816 9.27664 116.71C8.77339 115.638 7.15292 113.877 5.83943 114.053C5.622 114.089 5.41453 114.17 5.23042 114.291C5.04631 114.412 4.88967 114.571 4.77062 114.756C4.65157 114.942 4.57275 115.15 4.53928 115.368C4.5058 115.586 4.5184 115.808 4.57627 116.021C4.7977 116.932 5.72871 117.606 6.53895 117.963Z" fill="white"/>
<path d="M165.214 9.5174H22.1046V104.119H165.214V9.5174Z" fill="white"/>
<mask id="mask0_2274_138" style="mask-type:luminance" maskUnits="userSpaceOnUse" x="22" y="9" width="144" height="96">
<path d="M165.214 9.5174H22.1046V104.119H165.214V9.5174Z" fill="white"/>
</mask>
<g mask="url(#mask0_2274_138)">
<path d="M165.214 9.5174H22.1046V104.119H165.214V9.5174Z" fill="#263238"/>
<path opacity="0.8" d="M165.214 9.5174H22.1046V104.119H165.214V9.5174Z" fill="white"/>
</g>
<path d="M165.214 9.5174H22.1046V104.119H165.214V9.5174Z" stroke="#263238" stroke-linecap="round" stroke-linejoin="round"/>
<path d="M161.556 20.0656H61.7256V101.225H161.556V20.0656Z" fill="white"/>
<path d="M165.214 9.5174H22.1046V18.7118H165.214V9.5174Z" fill="#0A5F59" stroke="#263238" stroke-linecap="round" stroke-linejoin="round"/>
<path d="M161.556 20.0656H61.7256V101.225H161.556V20.0656Z" stroke="#263238" stroke-linecap="round" stroke-linejoin="round"/>
<path d="M61.7256 33.9113H161.556" stroke="#263238" stroke-linecap="round" stroke-linejoin="round"/>
<path opacity="0.28" d="M28.4406 25.7573C28.8853 25.7573 29.2458 25.3968 29.2458 24.9521C29.2458 24.5074 28.8853 24.1469 28.4406 24.1469C27.9959 24.1469 27.6354 24.5074 27.6354 24.9521C27.6354 25.3968 27.9959 25.7573 28.4406 25.7573Z" fill="black"/>
<path opacity="0.28" d="M32.8642 25.7573C33.3089 25.7573 33.6694 25.3968 33.6694 24.9521C33.6694 24.5074 33.3089 24.1469 32.8642 24.1469C32.4195 24.1469 32.059 24.5074 32.059 24.9521C32.059 25.3968 32.4195 25.7573 32.8642 25.7573Z" fill="black"/>
<path opacity="0.28" d="M37.2827 25.7573C37.7274 25.7573 38.0879 25.3968 38.0879 24.9521C38.0879 24.5074 37.7274 24.1469 37.2827 24.1469C36.838 24.1469 36.4775 24.5074 36.4775 24.9521C36.4775 25.3968 36.838 25.7573 37.2827 25.7573Z" fill="black"/>
<path opacity="0.28" d="M42.5115 24.9521C42.5125 25.1116 42.4661 25.2678 42.3783 25.4009C42.2904 25.5339 42.165 25.6379 42.018 25.6996C41.8709 25.7614 41.7089 25.778 41.5523 25.7475C41.3958 25.717 41.2519 25.6407 41.1388 25.5283C41.0256 25.4159 40.9484 25.2725 40.917 25.1161C40.8855 24.9598 40.9011 24.7976 40.9619 24.6502C41.0227 24.5028 41.1259 24.3767 41.2584 24.288C41.391 24.1993 41.5468 24.152 41.7063 24.152C41.919 24.152 42.123 24.2361 42.2739 24.386C42.4248 24.536 42.5102 24.7395 42.5115 24.9521Z" fill="black"/>
<path opacity="0.28" d="M46.1248 25.7573C46.5695 25.7573 46.93 25.3968 46.93 24.9521C46.93 24.5074 46.5695 24.1469 46.1248 24.1469C45.6801 24.1469 45.3196 24.5074 45.3196 24.9521C45.3196 25.3968 45.6801 25.7573 46.1248 25.7573Z" fill="black"/>
<path opacity="0.28" d="M50.5484 25.7573C50.9931 25.7573 51.3536 25.3968 51.3536 24.9521C51.3536 24.5074 50.9931 24.1469 50.5484 24.1469C50.1037 24.1469 49.7432 24.5074 49.7432 24.9521C49.7432 25.3968 50.1037 25.7573 50.5484 25.7573Z" fill="black"/>
<path opacity="0.28" d="M54.972 25.7573C55.4167 25.7573 55.7772 25.3968 55.7772 24.9521C55.7772 24.5074 55.4167 24.1469 54.972 24.1469C54.5273 24.1469 54.1668 24.5074 54.1668 24.9521C54.1668 25.3968 54.5273 25.7573 54.972 25.7573Z" fill="black"/>
<path opacity="0.28" d="M28.4406 29.8035C28.8853 29.8035 29.2458 29.443 29.2458 28.9983C29.2458 28.5536 28.8853 28.1931 28.4406 28.1931C27.9959 28.1931 27.6354 28.5536 27.6354 28.9983C27.6354 29.443 27.9959 29.8035 28.4406 29.8035Z" fill="black"/>
<path opacity="0.28" d="M32.8642 29.8035C33.3089 29.8035 33.6694 29.443 33.6694 28.9983C33.6694 28.5536 33.3089 28.1931 32.8642 28.1931C32.4195 28.1931 32.059 28.5536 32.059 28.9983C32.059 29.443 32.4195 29.8035 32.8642 29.8035Z" fill="black"/>
<path opacity="0.28" d="M37.2827 29.8035C37.7274 29.8035 38.0879 29.443 38.0879 28.9983C38.0879 28.5536 37.7274 28.1931 37.2827 28.1931C36.838 28.1931 36.4775 28.5536 36.4775 28.9983C36.4775 29.443 36.838 29.8035 37.2827 29.8035Z" fill="black"/>
<path opacity="0.28" d="M42.5115 28.9983C42.5125 29.1578 42.4661 29.3139 42.3783 29.447C42.2904 29.5801 42.165 29.6841 42.018 29.7458C41.8709 29.8075 41.7089 29.8242 41.5523 29.7937C41.3958 29.7632 41.2519 29.6869 41.1388 29.5745C41.0256 29.4621 40.9484 29.3186 40.917 29.1623C40.8855 29.0059 40.9011 28.8438 40.9619 28.6964C41.0227 28.5489 41.1259 28.4229 41.2584 28.3342C41.391 28.2455 41.5468 28.1981 41.7063 28.1981C41.919 28.1981 42.123 28.2823 42.2739 28.4322C42.4248 28.5821 42.5102 28.7856 42.5115 28.9983Z" fill="black"/>
<path opacity="0.28" d="M46.1248 29.8035C46.5695 29.8035 46.93 29.443 46.93 28.9983C46.93 28.5536 46.5695 28.1931 46.1248 28.1931C45.6801 28.1931 45.3196 28.5536 45.3196 28.9983C45.3196 29.443 45.6801 29.8035 46.1248 29.8035Z" fill="black"/>
<path opacity="0.28" d="M50.5484 29.8035C50.9931 29.8035 51.3536 29.443 51.3536 28.9983C51.3536 28.5536 50.9931 28.1931 50.5484 28.1931C50.1037 28.1931 49.7432 28.5536 49.7432 28.9983C49.7432 29.443 50.1037 29.8035 50.5484 29.8035Z" fill="black"/>
<path opacity="0.28" d="M54.972 29.8035C55.4167 29.8035 55.7772 29.443 55.7772 28.9983C55.7772 28.5536 55.4167 28.1931 54.972 28.1931C54.5273 28.1931 54.1668 28.5536 54.1668 28.9983C54.1668 29.443 54.5273 29.8035 54.972 29.8035Z" fill="black"/>
<path opacity="0.28" d="M28.4406 33.8497C28.8853 33.8497 29.2458 33.4892 29.2458 33.0445C29.2458 32.5998 28.8853 32.2393 28.4406 32.2393C27.9959 32.2393 27.6354 32.5998 27.6354 33.0445C27.6354 33.4892 27.9959 33.8497 28.4406 33.8497Z" fill="black"/>
<path opacity="0.28" d="M32.8642 33.8497C33.3089 33.8497 33.6694 33.4892 33.6694 33.0445C33.6694 32.5998 33.3089 32.2393 32.8642 32.2393C32.4195 32.2393 32.059 32.5998 32.059 33.0445C32.059 33.4892 32.4195 33.8497 32.8642 33.8497Z" fill="black"/>
<path opacity="0.28" d="M37.2827 33.8497C37.7274 33.8497 38.0879 33.4892 38.0879 33.0445C38.0879 32.5998 37.7274 32.2393 37.2827 32.2393C36.838 32.2393 36.4775 32.5998 36.4775 33.0445C36.4775 33.4892 36.838 33.8497 37.2827 33.8497Z" fill="black"/>
<path opacity="0.28" d="M42.5115 33.0595C42.5115 33.2188 42.4642 33.3745 42.3758 33.5069C42.2873 33.6393 42.1615 33.7425 42.0144 33.8035C41.8673 33.8644 41.7054 33.8803 41.5492 33.8493C41.393 33.8182 41.2495 33.7415 41.1369 33.6289C41.0243 33.5163 40.9476 33.3728 40.9165 33.2166C40.8855 33.0604 40.9014 32.8985 40.9624 32.7514C41.0233 32.6043 41.1265 32.4785 41.2589 32.39C41.3913 32.3016 41.547 32.2543 41.7063 32.2543C41.9198 32.2543 42.1246 32.3392 42.2756 32.4902C42.4266 32.6412 42.5115 32.846 42.5115 33.0595Z" fill="black"/>
<path opacity="0.28" d="M46.1248 33.8497C46.5695 33.8497 46.93 33.4892 46.93 33.0445C46.93 32.5998 46.5695 32.2393 46.1248 32.2393C45.6801 32.2393 45.3196 32.5998 45.3196 33.0445C45.3196 33.4892 45.6801 33.8497 46.1248 33.8497Z" fill="black"/>
<path opacity="0.28" d="M50.5484 33.8497C50.9931 33.8497 51.3536 33.4892 51.3536 33.0445C51.3536 32.5998 50.9931 32.2393 50.5484 32.2393C50.1037 32.2393 49.7432 32.5998 49.7432 33.0445C49.7432 33.4892 50.1037 33.8497 50.5484 33.8497Z" fill="black"/>
<path opacity="0.28" d="M54.972 33.8497C55.4167 33.8497 55.7772 33.4892 55.7772 33.0445C55.7772 32.5998 55.4167 32.2393 54.972 32.2393C54.5273 32.2393 54.1668 32.5998 54.1668 33.0445C54.1668 33.4892 54.5273 33.8497 54.972 33.8497Z" fill="black"/>
<path opacity="0.28" d="M29.2458 37.0855C29.2458 37.2448 29.1986 37.4005 29.1101 37.5329C29.0216 37.6653 28.8959 37.7685 28.7487 37.8295C28.6016 37.8904 28.4397 37.9063 28.2835 37.8753C28.1273 37.8442 27.9838 37.7675 27.8712 37.6549C27.7586 37.5423 27.6819 37.3988 27.6508 37.2426C27.6198 37.0864 27.6357 36.9245 27.6967 36.7774C27.7576 36.6303 27.8608 36.5045 27.9932 36.416C28.1256 36.3276 28.2813 36.2803 28.4406 36.2803C28.6541 36.2803 28.8589 36.3652 29.0099 36.5162C29.161 36.6672 29.2458 36.872 29.2458 37.0855Z" fill="black"/>
<path opacity="0.28" d="M33.6694 37.0855C33.6694 37.2448 33.6221 37.4005 33.5337 37.5329C33.4452 37.6653 33.3194 37.7685 33.1723 37.8295C33.0252 37.8904 32.8633 37.9063 32.7071 37.8753C32.5509 37.8442 32.4074 37.7675 32.2948 37.6549C32.1822 37.5423 32.1055 37.3988 32.0744 37.2426C32.0434 37.0864 32.0593 36.9245 32.1203 36.7774C32.1812 36.6303 32.2844 36.5045 32.4168 36.416C32.5492 36.3276 32.7049 36.2803 32.8642 36.2803C33.0777 36.2803 33.2825 36.3652 33.4335 36.5162C33.5845 36.6672 33.6694 36.872 33.6694 37.0855Z" fill="black"/>
<path opacity="0.28" d="M38.0879 37.0855C38.0879 37.2448 38.0407 37.4005 37.9522 37.5329C37.8637 37.6653 37.738 37.7685 37.5908 37.8295C37.4437 37.8904 37.2818 37.9063 37.1256 37.8753C36.9694 37.8442 36.8259 37.7675 36.7133 37.6549C36.6007 37.5423 36.524 37.3988 36.493 37.2426C36.4619 37.0864 36.4778 36.9245 36.5388 36.7774C36.5997 36.6303 36.7029 36.5045 36.8353 36.416C36.9677 36.3276 37.1234 36.2803 37.2827 36.2803C37.4962 36.2803 37.701 36.3652 37.852 36.5162C38.003 36.6672 38.0879 36.872 38.0879 37.0855Z" fill="black"/>
<path opacity="0.28" d="M42.5115 37.0855C42.5115 37.2448 42.4642 37.4005 42.3758 37.5329C42.2873 37.6653 42.1615 37.7685 42.0144 37.8295C41.8673 37.8904 41.7054 37.9063 41.5492 37.8753C41.393 37.8442 41.2495 37.7675 41.1369 37.6549C41.0243 37.5423 40.9476 37.3988 40.9165 37.2426C40.8855 37.0864 40.9014 36.9245 40.9624 36.7774C41.0233 36.6303 41.1265 36.5045 41.2589 36.416C41.3913 36.3276 41.547 36.2803 41.7063 36.2803C41.9198 36.2803 42.1246 36.3652 42.2756 36.5162C42.4266 36.6672 42.5115 36.872 42.5115 37.0855Z" fill="black"/>
<path opacity="0.28" d="M46.9301 37.0855C46.9301 37.2448 46.8828 37.4005 46.7943 37.5329C46.7059 37.6653 46.5801 37.7685 46.433 37.8295C46.2859 37.8904 46.124 37.9063 45.9678 37.8753C45.8116 37.8442 45.6681 37.7675 45.5555 37.6549C45.4429 37.5423 45.3662 37.3988 45.3351 37.2426C45.304 37.0864 45.32 36.9245 45.3809 36.7774C45.4419 36.6303 45.5451 36.5045 45.6775 36.416C45.8099 36.3276 45.9656 36.2803 46.1248 36.2803C46.3384 36.2803 46.5432 36.3652 46.6942 36.5162C46.8452 36.6672 46.9301 36.872 46.9301 37.0855Z" fill="black"/>
<path opacity="0.28" d="M51.3536 37.0855C51.3536 37.2448 51.3064 37.4005 51.2179 37.5329C51.1295 37.6653 51.0037 37.7685 50.8566 37.8295C50.7094 37.8904 50.5475 37.9063 50.3913 37.8753C50.2351 37.8442 50.0917 37.7675 49.9791 37.6549C49.8665 37.5423 49.7898 37.3988 49.7587 37.2426C49.7276 37.0864 49.7436 36.9245 49.8045 36.7774C49.8655 36.6303 49.9687 36.5045 50.1011 36.416C50.2335 36.3276 50.3892 36.2803 50.5484 36.2803C50.762 36.2803 50.9668 36.3652 51.1178 36.5162C51.2688 36.6672 51.3536 36.872 51.3536 37.0855Z" fill="black"/>
<path opacity="0.28" d="M55.7721 37.0856C55.7721 37.245 55.7248 37.4009 55.6361 37.5334C55.5474 37.6659 55.4213 37.7691 55.2739 37.8299C55.1265 37.8907 54.9643 37.9064 54.808 37.8749C54.6517 37.8434 54.5082 37.7662 54.3958 37.6531C54.2834 37.54 54.2071 37.3961 54.1766 37.2395C54.1461 37.083 54.1628 36.921 54.2245 36.7739C54.2862 36.6269 54.3902 36.5015 54.5233 36.4136C54.6563 36.3257 54.8125 36.2794 54.972 36.2804C55.1847 36.2817 55.3882 36.3671 55.5381 36.518C55.688 36.6688 55.7722 36.8729 55.7721 37.0856Z" fill="black"/>
<path opacity="0.28" d="M29.2458 41.1367C29.2458 41.296 29.1986 41.4517 29.1101 41.5841C29.0216 41.7165 28.8959 41.8197 28.7487 41.8807C28.6016 41.9416 28.4397 41.9576 28.2835 41.9265C28.1273 41.8954 27.9838 41.8187 27.8712 41.7061C27.7586 41.5935 27.6819 41.45 27.6508 41.2938C27.6198 41.1376 27.6357 40.9757 27.6967 40.8286C27.7576 40.6815 27.8608 40.5557 27.9932 40.4672C28.1256 40.3788 28.2813 40.3315 28.4406 40.3315C28.6541 40.3315 28.8589 40.4164 29.0099 40.5674C29.161 40.7184 29.2458 40.9232 29.2458 41.1367Z" fill="black"/>
<path opacity="0.28" d="M33.6694 41.1367C33.6694 41.296 33.6221 41.4517 33.5337 41.5841C33.4452 41.7165 33.3194 41.8197 33.1723 41.8807C33.0252 41.9416 32.8633 41.9576 32.7071 41.9265C32.5509 41.8954 32.4074 41.8187 32.2948 41.7061C32.1822 41.5935 32.1055 41.45 32.0744 41.2938C32.0434 41.1376 32.0593 40.9757 32.1203 40.8286C32.1812 40.6815 32.2844 40.5557 32.4168 40.4672C32.5492 40.3788 32.7049 40.3315 32.8642 40.3315C33.0777 40.3315 33.2825 40.4164 33.4335 40.5674C33.5845 40.7184 33.6694 40.9232 33.6694 41.1367Z" fill="black"/>
<path opacity="0.28" d="M38.0879 41.1367C38.0879 41.296 38.0407 41.4516 37.9522 41.5841C37.8637 41.7165 37.738 41.8197 37.5908 41.8806C37.4437 41.9416 37.2818 41.9575 37.1256 41.9264C36.9694 41.8954 36.8259 41.8187 36.7133 41.7061C36.6007 41.5935 36.524 41.45 36.493 41.2938C36.4619 41.1376 36.4778 40.9757 36.5388 40.8286C36.5997 40.6814 36.7029 40.5557 36.8353 40.4672C36.9677 40.3787 37.1234 40.3315 37.2827 40.3315C37.3886 40.3308 37.4936 40.3512 37.5916 40.3914C37.6896 40.4317 37.7786 40.4909 37.8535 40.5658C37.9284 40.6407 37.9877 40.7298 38.028 40.8278C38.0682 40.9258 38.0886 41.0308 38.0879 41.1367Z" fill="black"/>
<path opacity="0.28" d="M42.5115 41.1367C42.5115 41.296 42.4642 41.4517 42.3758 41.5841C42.2873 41.7165 42.1615 41.8197 42.0144 41.8807C41.8673 41.9416 41.7054 41.9576 41.5492 41.9265C41.393 41.8954 41.2495 41.8187 41.1369 41.7061C41.0243 41.5935 40.9476 41.45 40.9165 41.2938C40.8855 41.1376 40.9014 40.9757 40.9624 40.8286C41.0233 40.6815 41.1265 40.5557 41.2589 40.4672C41.3913 40.3788 41.547 40.3315 41.7063 40.3315C41.9198 40.3315 42.1246 40.4164 42.2756 40.5674C42.4266 40.7184 42.5115 40.9232 42.5115 41.1367Z" fill="black"/>
<path opacity="0.28" d="M46.9301 41.1367C46.9301 41.296 46.8828 41.4516 46.7943 41.5841C46.7059 41.7165 46.5801 41.8197 46.433 41.8806C46.2859 41.9416 46.124 41.9575 45.9678 41.9264C45.8116 41.8954 45.6681 41.8187 45.5555 41.7061C45.4429 41.5935 45.3662 41.45 45.3351 41.2938C45.304 41.1376 45.32 40.9757 45.3809 40.8286C45.4419 40.6814 45.5451 40.5557 45.6775 40.4672C45.8099 40.3787 45.9656 40.3315 46.1248 40.3315C46.2308 40.3308 46.3358 40.3512 46.4338 40.3914C46.5318 40.4317 46.6208 40.4909 46.6957 40.5658C46.7706 40.6407 46.8299 40.7298 46.8701 40.8278C46.9103 40.9258 46.9307 41.0308 46.9301 41.1367Z" fill="black"/>
<path opacity="0.28" d="M51.3536 41.1367C51.3536 41.296 51.3064 41.4517 51.2179 41.5841C51.1295 41.7165 51.0037 41.8197 50.8566 41.8807C50.7094 41.9416 50.5475 41.9576 50.3913 41.9265C50.2351 41.8954 50.0917 41.8187 49.9791 41.7061C49.8665 41.5935 49.7898 41.45 49.7587 41.2938C49.7276 41.1376 49.7436 40.9757 49.8045 40.8286C49.8655 40.6815 49.9687 40.5557 50.1011 40.4672C50.2335 40.3788 50.3892 40.3315 50.5484 40.3315C50.762 40.3315 50.9668 40.4164 51.1178 40.5674C51.2688 40.7184 51.3536 40.9232 51.3536 41.1367Z" fill="black"/>
<path opacity="0.28" d="M55.7721 41.1367C55.7721 41.2962 55.7248 41.452 55.6361 41.5846C55.5474 41.7171 55.4213 41.8203 55.2739 41.8811C55.1265 41.9419 54.9643 41.9575 54.808 41.926C54.6517 41.8946 54.5082 41.8174 54.3958 41.7043C54.2834 41.5911 54.2071 41.4472 54.1766 41.2907C54.1461 41.1342 54.1628 40.9721 54.2245 40.8251C54.2862 40.678 54.3902 40.5526 54.5233 40.4647C54.6563 40.3769 54.8125 40.3305 54.972 40.3315C55.0775 40.3315 55.182 40.3524 55.2794 40.3929C55.3768 40.4334 55.4652 40.4928 55.5396 40.5676C55.6139 40.6425 55.6728 40.7313 55.7127 40.8289C55.7526 40.9266 55.7728 41.0312 55.7721 41.1367Z" fill="black"/>
<path opacity="0.28" d="M29.2458 45.1829C29.2458 45.3421 29.1986 45.4978 29.1101 45.6302C29.0216 45.7626 28.8959 45.8659 28.7487 45.9268C28.6016 45.9877 28.4397 46.0037 28.2835 45.9726C28.1273 45.9415 27.9838 45.8649 27.8712 45.7523C27.7586 45.6396 27.6819 45.4962 27.6508 45.34C27.6198 45.1838 27.6357 45.0219 27.6967 44.8747C27.7576 44.7276 27.8608 44.6019 27.9932 44.5134C28.1256 44.4249 28.2813 44.3777 28.4406 44.3777C28.6541 44.3777 28.8589 44.4625 29.0099 44.6135C29.161 44.7645 29.2458 44.9693 29.2458 45.1829Z" fill="black"/>
<path opacity="0.28" d="M33.6694 45.1829C33.6694 45.3421 33.6221 45.4978 33.5337 45.6302C33.4452 45.7626 33.3194 45.8659 33.1723 45.9268C33.0252 45.9877 32.8633 46.0037 32.7071 45.9726C32.5509 45.9415 32.4074 45.8649 32.2948 45.7523C32.1822 45.6396 32.1055 45.4962 32.0744 45.34C32.0434 45.1838 32.0593 45.0219 32.1203 44.8747C32.1812 44.7276 32.2844 44.6019 32.4168 44.5134C32.5492 44.4249 32.7049 44.3777 32.8642 44.3777C33.0777 44.3777 33.2825 44.4625 33.4335 44.6135C33.5845 44.7645 33.6694 44.9693 33.6694 45.1829Z" fill="black"/>
<path opacity="0.28" d="M38.0879 45.1829C38.0879 45.3422 38.0407 45.4978 37.9522 45.6302C37.8637 45.7627 37.738 45.8659 37.5908 45.9268C37.4437 45.9878 37.2818 46.0037 37.1256 45.9726C36.9694 45.9416 36.8259 45.8649 36.7133 45.7523C36.6007 45.6397 36.524 45.4962 36.493 45.34C36.4619 45.1838 36.4778 45.0219 36.5388 44.8748C36.5997 44.7276 36.7029 44.6019 36.8353 44.5134C36.9677 44.4249 37.1234 44.3777 37.2827 44.3777C37.3886 44.377 37.4936 44.3974 37.5916 44.4376C37.6896 44.4779 37.7786 44.5371 37.8535 44.612C37.9284 44.687 37.9877 44.776 38.028 44.874C38.0682 44.972 38.0886 45.077 38.0879 45.1829Z" fill="black"/>
<path opacity="0.28" d="M42.5115 45.1829C42.5115 45.3421 42.4642 45.4978 42.3758 45.6302C42.2873 45.7626 42.1615 45.8659 42.0144 45.9268C41.8673 45.9877 41.7054 46.0037 41.5492 45.9726C41.393 45.9415 41.2495 45.8649 41.1369 45.7523C41.0243 45.6396 40.9476 45.4962 40.9165 45.34C40.8855 45.1838 40.9014 45.0219 40.9624 44.8747C41.0233 44.7276 41.1265 44.6019 41.2589 44.5134C41.3913 44.4249 41.547 44.3777 41.7063 44.3777C41.9198 44.3777 42.1246 44.4625 42.2756 44.6135C42.4266 44.7645 42.5115 44.9693 42.5115 45.1829Z" fill="black"/>
<path opacity="0.28" d="M46.9301 45.1829C46.9301 45.3422 46.8828 45.4978 46.7943 45.6302C46.7059 45.7627 46.5801 45.8659 46.433 45.9268C46.2859 45.9878 46.124 46.0037 45.9678 45.9726C45.8116 45.9416 45.6681 45.8649 45.5555 45.7523C45.4429 45.6397 45.3662 45.4962 45.3351 45.34C45.304 45.1838 45.32 45.0219 45.3809 44.8748C45.4419 44.7276 45.5451 44.6019 45.6775 44.5134C45.8099 44.4249 45.9656 44.3777 46.1248 44.3777C46.2308 44.377 46.3358 44.3974 46.4338 44.4376C46.5318 44.4779 46.6208 44.5371 46.6957 44.612C46.7706 44.687 46.8299 44.776 46.8701 44.874C46.9103 44.972 46.9307 45.077 46.9301 45.1829Z" fill="black"/>
<path opacity="0.28" d="M51.3536 45.1829C51.3536 45.3421 51.3064 45.4978 51.2179 45.6302C51.1295 45.7626 51.0037 45.8659 50.8566 45.9268C50.7094 45.9877 50.5475 46.0037 50.3913 45.9726C50.2351 45.9415 50.0917 45.8649 49.9791 45.7523C49.8665 45.6396 49.7898 45.4962 49.7587 45.34C49.7276 45.1838 49.7436 45.0219 49.8045 44.8747C49.8655 44.7276 49.9687 44.6019 50.1011 44.5134C50.2335 44.4249 50.3892 44.3777 50.5484 44.3777C50.762 44.3777 50.9668 44.4625 51.1178 44.6135C51.2688 44.7645 51.3536 44.9693 51.3536 45.1829Z" fill="black"/>
<path opacity="0.28" d="M55.7721 45.1829C55.7721 45.3424 55.7248 45.4982 55.6361 45.6308C55.5474 45.7633 55.4213 45.8665 55.2739 45.9273C55.1265 45.9881 54.9643 46.0037 54.808 45.9722C54.6517 45.9408 54.5082 45.8636 54.3958 45.7505C54.2834 45.6374 54.2071 45.4934 54.1766 45.3369C54.1461 45.1804 54.1628 45.0183 54.2245 44.8713C54.2862 44.7242 54.3902 44.5988 54.5233 44.5109C54.6563 44.4231 54.8125 44.3767 54.972 44.3777C55.0775 44.3777 55.182 44.3986 55.2794 44.4391C55.3768 44.4796 55.4652 44.539 55.5396 44.6138C55.6139 44.6887 55.6728 44.7775 55.7127 44.8751C55.7526 44.9728 55.7728 45.0774 55.7721 45.1829Z" fill="black"/>
<path d="M27.6907 54.1609H40.0456" stroke="#263238" stroke-linecap="round" stroke-linejoin="round"/>
<path d="M27.6907 62.5048H40.0456" stroke="#263238" stroke-linecap="round" stroke-linejoin="round"/>
<path d="M27.6907 70.8488H40.0456" stroke="#263238" stroke-linecap="round" stroke-linejoin="round"/>
<path d="M199.674 33.0944C199.674 33.0944 198.164 37.06 198.471 37.5884C198.778 38.1168 199.568 39.4354 199.145 40.4922C198.722 41.549 197.047 41.7302 197.258 42.5757C197.469 43.4211 198.632 44.0552 198.632 44.0552C198.632 44.0552 199.885 49.6866 200.413 50.4264C200.942 51.1662 203.795 50.7434 203.795 50.7434L204.007 53.5969L212.466 53.0685L212.149 47.9957L211.727 32.3546L199.674 33.0944Z" fill="white" stroke="#263238" stroke-linecap="round" stroke-linejoin="round"/>
<path d="M215.32 31.2827C214.829 30.5932 214.195 30.0184 213.461 29.5979C212.727 29.1773 211.91 28.9211 211.067 28.8469C211.067 28.8469 208.908 27 206.754 27C204.6 27 203.679 28.077 202.296 28.077C200.912 28.077 199.986 26.386 197.676 28.8469C195.366 31.3078 198.295 33.9247 198.295 33.9247C198.584 34.2308 198.942 34.4634 199.34 34.6035C199.737 34.7435 200.162 34.7868 200.579 34.73C200.484 35.198 200.288 36.2397 200.207 37.0097C200.101 38.0665 202.004 39.229 202.004 39.229C201.943 39.9351 201.979 40.6462 202.109 41.3427C202.321 41.8711 202.849 41.9768 203.166 41.5541C203.483 41.1313 203.695 39.1233 204.012 39.9688C204.329 40.8143 205.597 47.1553 206.442 47.895C207.288 48.6348 211.097 48.2121 212.154 48.0007C213.211 47.7893 215.219 43.3507 216.18 40.7086C217.141 38.0665 216.694 33.3963 215.32 31.2827Z" fill="#263238" stroke="#263238" stroke-linecap="round" stroke-linejoin="round"/>
<path d="M203.101 39.8984C203.241 40.881 203.326 41.8705 203.357 42.8625C203.357 44.025 202.582 44.6692 203.101 45.1875C203.619 45.7059 204.002 45.4442 204.389 44.5384C204.805 43.4728 204.977 42.3275 204.892 41.1867C204.777 40.2859 204.646 38.3484 203.101 39.8984Z" fill="white" stroke="#263238" stroke-linecap="round" stroke-linejoin="round"/>
<path d="M194.495 99.2771C194.495 99.2771 191.853 116.891 189.815 134.243C187.777 151.595 188.028 175.812 188.028 175.812L193.403 175.781C193.403 175.781 199.503 141.892 200.781 138.068C202.059 134.243 206.392 118.174 206.392 118.174C206.392 118.174 208.687 136.538 209.452 137.801C210.217 139.064 220.589 176.018 220.589 176.018L226.205 175.948L220.669 136.05L217.604 99.3123L194.495 99.2771Z" fill="#263238" stroke="#263238" stroke-linecap="round" stroke-linejoin="round"/>
<path d="M216.271 112.165L208.767 115.009L206.392 118.174" stroke="white" stroke-width="0.75" stroke-linecap="round" stroke-linejoin="round"/>
<path d="M198.219 103.852H204.912" stroke="white" stroke-width="0.75" stroke-linecap="round" stroke-linejoin="round"/>
<path d="M217.081 103.852H214.444" stroke="white" stroke-width="0.75" stroke-linecap="round" stroke-linejoin="round"/>
<path d="M187.741 176.018L186.81 177.306C186.81 177.306 179.07 180.462 179.07 180.749C179.07 181.035 179 181.252 179.644 181.252H189.604L190.68 180.895V181.252H193.544L193.614 175.953L187.741 176.018Z" fill="#263238"/>
<path d="M220.629 176.018L219.698 177.306C219.698 177.306 211.963 180.462 211.963 180.749C211.963 181.035 211.888 181.252 212.532 181.252H222.496L223.568 180.895V181.252H226.437L226.507 175.953L220.629 176.018Z" fill="#263238"/>
<path d="M201.999 53.2647L199.674 57.492C199.674 57.492 205.486 55.8011 208.657 55.8011C210.891 55.841 213.118 56.053 215.32 56.4352L213.644 53.0081C213.644 53.0081 205.803 51.4681 201.999 53.2647Z" fill="#0A5F59" stroke="#263238" stroke-linecap="round" stroke-linejoin="round"/>
<path d="M223.734 59.5201L230.885 88.6031C230.988 89.0217 231.002 89.4573 230.925 89.8815C230.849 90.3057 230.684 90.7091 230.441 91.0655C230.199 91.4219 229.884 91.7233 229.517 91.9502C229.151 92.1771 228.741 92.3244 228.314 92.3825L212.904 94.4911L213.271 89.514L221.011 85.8302L219.351 77.5366C219.351 77.5366 221.092 59.7315 223.734 59.5201Z" fill="#0A5F59" stroke="#263238" stroke-linecap="round" stroke-linejoin="round"/>
<path d="M200.383 56.3043C198.326 56.7194 196.324 57.3747 194.42 58.257C193.388 58.7705 192.33 59.2291 191.249 59.6308C191.249 59.6308 193.982 95.0648 193.982 96.8715C193.982 98.6782 193.876 98.7738 194.485 99.3022C195.094 99.8306 198.4 100.072 204.213 99.9665C210.026 99.8608 215.204 99.9363 215.732 99.9363C216.16 99.9057 216.573 99.7749 216.941 99.5546C217.308 99.3343 217.618 99.0306 217.846 98.6681C218.48 97.717 223.618 59.968 223.724 59.5453C223.83 59.1226 215.737 56.6767 214.993 56.4603C210.851 55.2374 205.295 55.2777 200.383 56.3043Z" fill="#0A5F59" stroke="#263238" stroke-linecap="round" stroke-linejoin="round"/>
<path d="M213.332 83.9229C212.664 84.5266 211.953 85.08 211.203 85.5785" stroke="#263238" stroke-linecap="round" stroke-linejoin="round"/>
<path d="M221.092 70.1136C221.092 70.1136 219.623 76.6055 215.335 81.784" stroke="#263238" stroke-linecap="round" stroke-linejoin="round"/>
<path d="M221.756 85.9359C221.756 85.9359 223.306 88.1099 227.096 88.3615" stroke="#263238" stroke-linecap="round" stroke-linejoin="round"/>
<path d="M221.011 85.8402C221.266 86.6306 221.678 87.3611 222.223 87.9874C222.768 88.6137 223.434 89.1228 224.182 89.4838" stroke="#263238" stroke-linecap="round" stroke-linejoin="round"/>
<path d="M191.234 59.6158L176.303 64.296L161.482 45.8267L158.603 48.2272L171.884 73.7773C172.292 74.5659 172.95 75.1973 173.755 75.5732C174.559 75.9492 175.466 76.0485 176.333 75.8557L192.175 72.348C192.175 72.348 194.128 67.0136 191.234 59.6158Z" fill="#0A5F59" stroke="#263238" stroke-linecap="round" stroke-linejoin="round"/>
<path d="M175.829 64.8999C175.829 64.8999 174.375 66.8425 174.536 68.9259" stroke="#263238" stroke-linecap="round" stroke-linejoin="round"/>
<path d="M173.404 66.5204C173.404 66.5204 172.755 69.4292 173.907 71.2107" stroke="#263238" stroke-linecap="round" stroke-linejoin="round"/>
<path d="M192.175 72.348C192.175 72.348 195.884 76.6911 198.793 78.1455" stroke="#263238" stroke-linecap="round" stroke-linejoin="round"/>
<path d="M193.131 74.6026C193.131 74.6026 195.235 79.459 199.442 81.7186" stroke="#263238" stroke-linecap="round" stroke-linejoin="round"/>
<path d="M159.881 50.7837L163.082 48.7053" stroke="#263238" stroke-linecap="round" stroke-linejoin="round"/>
<path d="M161.482 45.8267C161.482 45.8267 162.488 44.5786 162.488 43.4262C162.488 42.2737 161.683 40.9099 162.03 39.9688C162.378 39.0278 163.872 37.8954 162.604 37.5482C161.336 37.201 160.299 37.8954 160.183 38.8164C160.068 39.7373 160.183 39.8531 160.183 39.8531C160.183 39.8531 158.799 37.0852 157.879 36.1643C156.958 35.2433 156.268 34.2066 155.689 34.2066C155.111 34.2066 154.537 34.5488 154.884 35.1275C155.231 35.7063 156.958 38.4691 156.958 38.4691L157.305 39.6216C157.305 39.6216 155.342 39.7373 155.111 40.0846C154.879 40.4318 155 41.4685 154.421 42.158C153.842 42.8474 153.958 43.5419 154.19 44.2364C154.421 44.9309 155.111 46.0783 155.574 46.0783C155.858 46.0755 156.136 45.9955 156.379 45.8468L158.578 48.2272L161.482 45.8267Z" fill="white" stroke="#263238" stroke-linecap="round" stroke-linejoin="round"/>
<path d="M156.404 45.8468L155.252 44.1207" stroke="#263238" stroke-linecap="round" stroke-linejoin="round"/>
<path d="M104.5 65.949L100.718 85.369L100.227 87.9113L125.437 87.7895C126.569 87.7842 127.573 86.779 127.935 85.2857L132.407 66.952C132.683 65.8187 132.077 64.6394 131.218 64.6404L105.696 64.6671C105.141 64.6661 104.643 65.1916 104.5 65.949Z" fill="#0A5F59"/>
<g opacity="0.5">
<path d="M104.5 65.949L100.718 85.369L100.227 87.9113L125.437 87.7895C126.569 87.7842 127.573 86.779 127.935 85.2857L132.407 66.952C132.683 65.8187 132.077 64.6394 131.218 64.6404L105.696 64.6671C105.141 64.6661 104.643 65.1916 104.5 65.949Z" fill="black"/>
</g>
<path d="M123.021 84.0508L120.351 62.5361C120.244 61.6548 119.54 60.9968 118.71 61L112.856 61.0182C112.639 61.0206 112.424 61.0673 112.225 61.1555C112.026 61.2437 111.847 61.3714 111.699 61.5309L108.922 64.4866L92.6427 64.5742C91.6482 64.5796 90.8833 65.5217 91.0147 66.5793L93.494 86.4639C93.6008 87.3441 94.3048 88.0011 95.1327 88L123.51 87.9434C126.669 88.0085 126.972 87.076 126.972 87.076C123.344 87.8782 123.021 84.0562 123.021 84.0508Z" fill="#0A5F59"/>
<g opacity="0.5">
<path d="M110.785 79.7481L109.828 80.7757L102.457 74.1443L103.414 73.1167L110.785 79.7481Z" fill="white"/>
<path d="M109.427 72.8892L110.485 73.8409L103.816 81.0033L102.758 80.0515L109.427 72.8892Z" fill="white"/>
</g>
<path d="M70.8 50.75H69.14L68.84 52H67L68.84 46.3H71.19L72.95 52H71.1L70.8 50.75ZM69.96 47.53L69.37 49.64H70.56L70 47.53H69.96ZM77.9573 47.4V52H76.5673L76.3773 51.23C75.8973 51.81 75.3239 52.1 74.6573 52.1C74.4173 52.1 74.1906 52.0667 73.9773 52C73.7706 51.9333 73.6139 51.8367 73.5073 51.71C73.4473 51.6367 73.4006 51.4533 73.3673 51.16C73.3406 50.8667 73.3273 50.42 73.3273 49.82V47.4H75.0373V49.8C75.0373 49.9333 75.0406 50.09 75.0473 50.27C75.0539 50.45 75.0739 50.5633 75.1073 50.61C75.1539 50.6767 75.2873 50.71 75.5073 50.71L75.6673 50.7C75.8539 50.6933 76.0473 50.65 76.2473 50.57V47.4H77.9573ZM82.6472 51.86C82.1072 52.04 81.5039 52.13 80.8372 52.13C80.0905 52.13 79.5305 51.9433 79.1572 51.57C78.7905 51.19 78.6072 50.6 78.6072 49.8C78.6072 49.4067 78.6605 49.02 78.7672 48.64C78.8739 48.2533 78.9872 47.9933 79.1072 47.86C79.2472 47.7067 79.5205 47.5767 79.9272 47.47C80.3405 47.3633 80.7672 47.31 81.2072 47.31C81.6672 47.31 82.1305 47.35 82.5972 47.43C82.5839 47.5967 82.5605 47.7933 82.5272 48.02C82.5005 48.24 82.4705 48.4367 82.4372 48.61C82.0239 48.5833 81.6339 48.57 81.2672 48.57C80.9072 48.57 80.6772 48.59 80.5772 48.63C80.5239 48.65 80.4739 48.7867 80.4272 49.04C80.3872 49.2933 80.3672 49.53 80.3672 49.75C80.3672 50.0433 80.4072 50.27 80.4872 50.43C80.5739 50.5833 80.7072 50.69 80.8872 50.75C81.0672 50.81 81.3105 50.84 81.6172 50.84C81.7505 50.84 82.0439 50.8267 82.4972 50.8L82.6472 51.86ZM87.8205 47.4V52H86.4305L86.2405 51.23C85.7605 51.81 85.1872 52.1 84.5205 52.1C84.2805 52.1 84.0539 52.0667 83.8405 52C83.6339 51.9333 83.4772 51.8367 83.3705 51.71C83.3105 51.6367 83.2639 51.4533 83.2305 51.16C83.2039 50.8667 83.1905 50.42 83.1905 49.82V47.4H84.9005V49.8C84.9005 49.9333 84.9039 50.09 84.9105 50.27C84.9172 50.45 84.9372 50.5633 84.9705 50.61C85.0172 50.6767 85.1505 50.71 85.3705 50.71L85.5305 50.7C85.7172 50.6933 85.9105 50.65 86.1105 50.57V47.4H87.8205ZM93.0905 47.69C93.1505 47.7633 93.1938 47.9467 93.2205 48.24C93.2538 48.5333 93.2705 48.98 93.2705 49.58V52H91.5605V49.6V49.19C91.5605 48.9767 91.5438 48.8433 91.5105 48.79C91.4571 48.7233 91.3338 48.69 91.1405 48.69C91.0471 48.69 90.9771 48.6933 90.9305 48.7C90.7438 48.7067 90.5505 48.75 90.3505 48.83V52H88.6405V47.4H90.0305L90.2205 48.17C90.7005 47.59 91.2738 47.3 91.9405 47.3C92.1805 47.3 92.4038 47.3333 92.6105 47.4C92.8238 47.4667 92.9838 47.5633 93.0905 47.69ZM98.7243 47.3C99.2043 47.3 99.5843 47.46 99.8643 47.78C100.151 48.0933 100.294 48.6433 100.294 49.43C100.294 50.0167 100.238 50.4967 100.124 50.87C100.011 51.2367 99.881 51.48 99.7343 51.6C99.5876 51.72 99.331 51.8167 98.9643 51.89C98.6043 51.9633 98.231 52 97.8443 52C97.731 52 97.541 51.9933 97.2743 51.98V53.4L95.5643 53.47V47.4H96.9643L97.1343 48.11C97.3076 47.8633 97.5276 47.6667 97.7943 47.52C98.0676 47.3733 98.3776 47.3 98.7243 47.3ZM98.3243 50.78C98.3976 50.7267 98.451 50.5767 98.4843 50.33C98.5176 50.0767 98.5343 49.8367 98.5343 49.61C98.5343 49.2367 98.4876 48.96 98.3943 48.78C98.301 48.6 98.1143 48.51 97.8343 48.51C97.6343 48.51 97.4476 48.53 97.2743 48.57V50.79L97.5543 50.82C97.641 50.8267 97.7643 50.83 97.9243 50.83C98.151 50.83 98.2843 50.8133 98.3243 50.78ZM103.815 47.3C103.901 47.3 103.991 47.31 104.085 47.33C104.185 47.35 104.258 47.3733 104.305 47.4C104.305 47.5467 104.288 47.79 104.255 48.13C104.221 48.4633 104.191 48.7 104.165 48.84C104.098 48.8333 103.975 48.83 103.795 48.83C103.375 48.83 103.001 48.8533 102.675 48.9V52H100.965V47.4H102.395L102.595 48.14H102.605C102.798 47.8867 103.005 47.6833 103.225 47.53C103.445 47.3767 103.641 47.3 103.815 47.3ZM106.974 52.13C106.174 52.13 105.574 51.9433 105.174 51.57C104.78 51.19 104.584 50.5933 104.584 49.78C104.584 49.3333 104.624 48.9433 104.704 48.61C104.79 48.27 104.894 48.0333 105.014 47.9C105.167 47.7267 105.447 47.5833 105.854 47.47C106.267 47.3567 106.654 47.3 107.014 47.3C107.874 47.3 108.487 47.4833 108.854 47.85C109.22 48.2167 109.404 48.8033 109.404 49.61C109.404 50.4767 109.207 51.1133 108.814 51.52C108.42 51.9267 107.807 52.13 106.974 52.13ZM107.004 50.96C107.264 50.96 107.434 50.87 107.514 50.69C107.594 50.5033 107.634 50.1767 107.634 49.71C107.634 49.3833 107.617 49.1333 107.584 48.96C107.55 48.78 107.487 48.65 107.394 48.57C107.307 48.4833 107.17 48.44 106.984 48.44C106.717 48.44 106.564 48.4633 106.524 48.51C106.47 48.5567 106.427 48.7033 106.394 48.95C106.36 49.1967 106.344 49.4533 106.344 49.72C106.344 50.1733 106.387 50.4933 106.474 50.68C106.567 50.8667 106.744 50.96 107.004 50.96ZM110.946 46.83C110.72 46.83 110.523 46.7533 110.356 46.6C110.196 46.4467 110.116 46.2633 110.116 46.05C110.116 45.8367 110.196 45.6533 110.356 45.5C110.523 45.3467 110.72 45.27 110.946 45.27C111.173 45.27 111.366 45.3467 111.526 45.5C111.686 45.6533 111.766 45.8367 111.766 46.05C111.766 46.2633 111.686 46.4467 111.526 46.6C111.366 46.7533 111.173 46.83 110.946 46.83ZM110.026 52.56C110.06 52.5067 110.076 52.4 110.076 52.24C110.076 52.08 110.076 51.9867 110.076 51.96V47.4H111.786V51.38C111.786 51.8333 111.74 52.2433 111.646 52.61C111.553 52.9767 111.416 53.27 111.236 53.49C111.136 53.6167 110.973 53.71 110.746 53.77C110.52 53.83 110.263 53.86 109.976 53.86C109.636 53.86 109.336 53.8267 109.076 53.76C109.043 53.5067 109.026 53.27 109.026 53.05C109.026 52.8967 109.03 52.78 109.036 52.7C109.643 52.68 109.973 52.6333 110.026 52.56ZM115.425 50.8C115.591 50.8 115.901 50.7833 116.355 50.75C116.415 50.75 116.525 50.7433 116.685 50.73L116.835 51.76C116.321 52 115.655 52.12 114.835 52.12C114.068 52.12 113.478 51.9267 113.065 51.54C112.658 51.1533 112.455 50.57 112.455 49.79C112.455 49.39 112.505 49.0033 112.605 48.63C112.711 48.2567 112.831 47.9967 112.965 47.85C113.105 47.7033 113.365 47.5767 113.745 47.47C114.125 47.3633 114.501 47.31 114.875 47.31C115.475 47.31 115.925 47.4167 116.225 47.63C116.525 47.8433 116.721 48.14 116.815 48.52C116.908 48.8933 116.955 49.3967 116.955 50.03C116.501 50.0567 116.058 50.07 115.625 50.07H114.205C114.205 50.2833 114.248 50.4433 114.335 50.55C114.428 50.6567 114.558 50.7267 114.725 50.76C114.891 50.7867 115.125 50.8 115.425 50.8ZM114.305 48.5C114.265 48.52 114.235 48.6067 114.215 48.76C114.195 48.9133 114.181 49.0867 114.175 49.28H114.695C115.008 49.28 115.235 49.2767 115.375 49.27C115.375 48.95 115.328 48.7233 115.235 48.59C115.148 48.4567 114.995 48.39 114.775 48.39C114.595 48.39 114.438 48.4267 114.305 48.5ZM119.676 50.11C119.676 50.23 119.68 50.3567 119.686 50.49C119.693 50.6167 119.713 50.6967 119.746 50.73C119.793 50.7767 119.956 50.8 120.236 50.8L120.576 50.79C120.636 51.11 120.666 51.48 120.666 51.9C120.54 51.9467 120.353 51.99 120.106 52.03C119.866 52.07 119.636 52.09 119.416 52.09C118.956 52.09 118.6 51.99 118.346 51.79C118.1 51.5833 117.976 51.2667 117.976 50.84V48.38H117.226V47.47L117.976 47.4L118.426 46.3L119.676 46.23V47.4H120.736V48.38H119.676V50.11ZM125.492 52L125.332 51.37C125.025 51.87 124.598 52.12 124.052 52.12C123.605 52.12 123.238 51.9967 122.952 51.75C122.672 51.4967 122.532 51.1433 122.532 50.69C122.532 50.41 122.612 50.1667 122.772 49.96C122.938 49.7467 123.165 49.5967 123.452 49.51C123.825 49.4033 124.402 49.3433 125.182 49.33C125.182 48.89 125.162 48.6567 125.122 48.63C125.088 48.6033 124.982 48.59 124.802 48.59C124.688 48.59 124.532 48.5967 124.332 48.61C124.012 48.6233 123.578 48.66 123.032 48.72C122.978 48.36 122.938 47.9733 122.912 47.56C123.265 47.4867 123.635 47.4267 124.022 47.38C124.408 47.3267 124.755 47.3 125.062 47.3C125.595 47.3 125.995 47.39 126.262 47.57C126.528 47.7433 126.702 47.9733 126.782 48.26C126.862 48.5467 126.898 48.91 126.892 49.35L126.882 50.82L126.912 52H125.492ZM124.632 51C124.805 51 124.988 50.9667 125.182 50.9V50.16H125.102C124.608 50.16 124.335 50.1867 124.282 50.24C124.248 50.2733 124.222 50.3233 124.202 50.39C124.188 50.4567 124.182 50.52 124.182 50.58C124.182 50.74 124.218 50.85 124.292 50.91C124.365 50.97 124.478 51 124.632 51ZM131.384 50.44C131.384 51.0333 131.194 51.46 130.814 51.72C130.441 51.98 129.907 52.11 129.214 52.11C128.727 52.11 128.167 52.04 127.534 51.9C127.547 51.7667 127.577 51.5767 127.624 51.33C127.677 51.0767 127.721 50.8833 127.754 50.75C127.994 50.79 128.261 50.8233 128.554 50.85C128.847 50.87 129.097 50.88 129.304 50.88C129.484 50.88 129.594 50.87 129.634 50.85C129.641 50.8433 129.647 50.8267 129.654 50.8C129.667 50.7667 129.674 50.7333 129.674 50.7C129.674 50.5667 129.591 50.4767 129.424 50.43C129.371 50.4167 129.167 50.36 128.814 50.26C128.461 50.16 128.171 49.98 127.944 49.72C127.724 49.4533 127.614 49.1233 127.614 48.73C127.614 48.5233 127.661 48.2933 127.754 48.04C127.847 47.7867 127.947 47.6267 128.054 47.56C128.134 47.5067 128.327 47.4533 128.634 47.4C128.941 47.34 129.224 47.31 129.484 47.31C130.037 47.31 130.594 47.35 131.154 47.43C131.154 47.55 131.137 47.7533 131.104 48.04C131.071 48.32 131.041 48.4967 131.014 48.57C130.447 48.4967 129.991 48.46 129.644 48.46C129.464 48.46 129.347 48.47 129.294 48.49C129.281 48.4967 129.267 48.5167 129.254 48.55C129.241 48.5767 129.234 48.6133 129.234 48.66C129.234 48.7533 129.264 48.82 129.324 48.86C129.384 48.9067 129.541 48.9633 129.794 49.03C130.094 49.1167 130.351 49.2067 130.564 49.3C130.784 49.3933 130.974 49.5333 131.134 49.72C131.301 49.9067 131.384 50.1467 131.384 50.44ZM135.671 50.44C135.671 51.0333 135.481 51.46 135.101 51.72C134.728 51.98 134.194 52.11 133.501 52.11C133.014 52.11 132.454 52.04 131.821 51.9C131.834 51.7667 131.864 51.5767 131.911 51.33C131.964 51.0767 132.008 50.8833 132.041 50.75C132.281 50.79 132.548 50.8233 132.841 50.85C133.134 50.87 133.384 50.88 133.591 50.88C133.771 50.88 133.881 50.87 133.921 50.85C133.928 50.8433 133.934 50.8267 133.941 50.8C133.954 50.7667 133.961 50.7333 133.961 50.7C133.961 50.5667 133.878 50.4767 133.711 50.43C133.658 50.4167 133.454 50.36 133.101 50.26C132.748 50.16 132.458 49.98 132.231 49.72C132.011 49.4533 131.901 49.1233 131.901 48.73C131.901 48.5233 131.948 48.2933 132.041 48.04C132.134 47.7867 132.234 47.6267 132.341 47.56C132.421 47.5067 132.614 47.4533 132.921 47.4C133.228 47.34 133.511 47.31 133.771 47.31C134.324 47.31 134.881 47.35 135.441 47.43C135.441 47.55 135.424 47.7533 135.391 48.04C135.358 48.32 135.328 48.4967 135.301 48.57C134.734 48.4967 134.278 48.46 133.931 48.46C133.751 48.46 133.634 48.47 133.581 48.49C133.568 48.4967 133.554 48.5167 133.541 48.55C133.528 48.5767 133.521 48.6133 133.521 48.66C133.521 48.7533 133.551 48.82 133.611 48.86C133.671 48.9067 133.828 48.9633 134.081 49.03C134.381 49.1167 134.638 49.2067 134.851 49.3C135.071 49.3933 135.261 49.5333 135.421 49.72C135.588 49.9067 135.671 50.1467 135.671 50.44ZM137.128 46.83C136.901 46.83 136.705 46.7533 136.538 46.6C136.378 46.4467 136.298 46.2633 136.298 46.05C136.298 45.8367 136.378 45.6533 136.538 45.5C136.705 45.3467 136.901 45.27 137.128 45.27C137.355 45.27 137.548 45.3467 137.708 45.5C137.868 45.6533 137.948 45.8367 137.948 46.05C137.948 46.2633 137.868 46.4467 137.708 46.6C137.548 46.7533 137.355 46.83 137.128 46.83ZM136.268 47.4H137.978V52H136.268V47.4ZM141.226 47.32C141.539 47.32 141.866 47.3433 142.206 47.39C142.546 47.43 142.943 47.4867 143.396 47.56V51.54C143.396 52.4933 143.079 53.2333 142.446 53.76C142.366 53.8267 142.186 53.8833 141.906 53.93C141.626 53.9767 141.309 54 140.956 54C140.189 54 139.583 53.9 139.136 53.7C139.129 53.5533 139.139 53.36 139.166 53.12C139.199 52.88 139.233 52.69 139.266 52.55C139.746 52.6233 140.216 52.66 140.676 52.66C140.909 52.66 141.106 52.6467 141.266 52.62C141.433 52.6 141.536 52.5667 141.576 52.52C141.629 52.4667 141.669 52.2667 141.696 51.92C141.703 51.8267 141.706 51.69 141.706 51.51V51.26C141.539 51.5067 141.326 51.6833 141.066 51.79C140.806 51.8967 140.573 51.95 140.366 51.95C139.806 51.95 139.383 51.7667 139.096 51.4C138.809 51.0333 138.666 50.4967 138.666 49.79C138.666 49.3233 138.729 48.8867 138.856 48.48C138.989 48.0667 139.169 47.78 139.396 47.62C139.543 47.52 139.779 47.4467 140.106 47.4C140.439 47.3467 140.813 47.32 141.226 47.32ZM141.016 50.7C141.263 50.7 141.486 50.66 141.686 50.58V48.49C141.613 48.4767 141.503 48.4633 141.356 48.45C141.289 48.4433 141.189 48.44 141.056 48.44C140.849 48.44 140.719 48.46 140.666 48.5C140.593 48.5533 140.533 48.7033 140.486 48.95C140.446 49.19 140.426 49.4433 140.426 49.71C140.426 50.0767 140.466 50.3333 140.546 50.48C140.633 50.6267 140.789 50.7 141.016 50.7ZM148.657 47.69C148.717 47.7633 148.76 47.9467 148.787 48.24C148.82 48.5333 148.837 48.98 148.837 49.58V52H147.127V49.6V49.19C147.127 48.9767 147.11 48.8433 147.077 48.79C147.024 48.7233 146.9 48.69 146.707 48.69C146.614 48.69 146.544 48.6933 146.497 48.7C146.31 48.7067 146.117 48.75 145.917 48.83V52H144.207V47.4H145.597L145.787 48.17C146.267 47.59 146.84 47.3 147.507 47.3C147.747 47.3 147.97 47.3333 148.177 47.4C148.39 47.4667 148.55 47.5633 148.657 47.69ZM152.417 50.8C152.583 50.8 152.893 50.7833 153.347 50.75C153.407 50.75 153.517 50.7433 153.677 50.73L153.827 51.76C153.313 52 152.647 52.12 151.827 52.12C151.06 52.12 150.47 51.9267 150.057 51.54C149.65 51.1533 149.447 50.57 149.447 49.79C149.447 49.39 149.497 49.0033 149.597 48.63C149.703 48.2567 149.823 47.9967 149.957 47.85C150.097 47.7033 150.357 47.5767 150.737 47.47C151.117 47.3633 151.493 47.31 151.867 47.31C152.467 47.31 152.917 47.4167 153.217 47.63C153.517 47.8433 153.713 48.14 153.807 48.52C153.9 48.8933 153.947 49.3967 153.947 50.03C153.493 50.0567 153.05 50.07 152.617 50.07H151.197C151.197 50.2833 151.24 50.4433 151.327 50.55C151.42 50.6567 151.55 50.7267 151.717 50.76C151.883 50.7867 152.117 50.8 152.417 50.8ZM151.297 48.5C151.257 48.52 151.227 48.6067 151.207 48.76C151.187 48.9133 151.173 49.0867 151.167 49.28H151.687C152 49.28 152.227 49.2767 152.367 49.27C152.367 48.95 152.32 48.7233 152.227 48.59C152.14 48.4567 151.987 48.39 151.767 48.39C151.587 48.39 151.43 48.4267 151.297 48.5ZM150.967 46.49C151.12 46.3233 151.353 46.1167 151.667 45.87C151.98 45.6233 152.293 45.3933 152.607 45.18L153.137 45.96C152.923 46.1067 152.64 46.29 152.287 46.51C151.933 46.73 151.627 46.9167 151.367 47.07L150.967 46.49Z" fill="#0A5F59"/>
<path d="M99.5333 29V24H101.044C101.393 24 101.687 24.0519 101.928 24.1556C102.172 24.2593 102.369 24.3963 102.517 24.5667C102.665 24.7333 102.772 24.9167 102.839 25.1167C102.909 25.313 102.944 25.5074 102.944 25.7C102.944 25.8889 102.911 26.0833 102.844 26.2833C102.778 26.4796 102.669 26.663 102.517 26.8333C102.369 27 102.174 27.1352 101.933 27.2389C101.693 27.3426 101.396 27.3944 101.044 27.3944H100.5V29H99.5333ZM100.5 26.5278H100.989C101.226 26.5278 101.413 26.487 101.55 26.4056C101.691 26.3204 101.791 26.2148 101.85 26.0889C101.913 25.963 101.944 25.8333 101.944 25.7C101.944 25.5704 101.915 25.4426 101.856 25.3167C101.796 25.187 101.696 25.0796 101.556 24.9944C101.419 24.9093 101.23 24.8667 100.989 24.8667H100.5V26.5278ZM103.476 29V25.6667H104.343V26.2389C104.458 26.0463 104.602 25.8981 104.776 25.7944C104.954 25.687 105.161 25.6333 105.398 25.6333L105.609 26.4889C105.539 26.4667 105.459 26.4556 105.37 26.4556C105.093 26.4556 104.869 26.5463 104.698 26.7278C104.528 26.9056 104.443 27.1611 104.443 27.4944V29H103.476ZM107.555 29.1111C107.225 29.1111 106.923 29.0315 106.649 28.8722C106.375 28.713 106.157 28.4981 105.994 28.2278C105.834 27.9574 105.755 27.6593 105.755 27.3333C105.755 27.0037 105.834 26.7056 105.994 26.4389C106.157 26.1685 106.375 25.9537 106.649 25.7944C106.923 25.6352 107.225 25.5556 107.555 25.5556C107.888 25.5556 108.19 25.6352 108.46 25.7944C108.734 25.9537 108.951 26.1685 109.11 26.4389C109.273 26.7056 109.355 27.0037 109.355 27.3333C109.355 27.6593 109.273 27.9574 109.11 28.2278C108.951 28.4981 108.734 28.713 108.46 28.8722C108.19 29.0315 107.888 29.1111 107.555 29.1111ZM107.555 28.2444C107.721 28.2444 107.871 28.2037 108.005 28.1222C108.142 28.0407 108.249 27.9315 108.327 27.7944C108.408 27.6537 108.449 27.5 108.449 27.3333C108.449 27.163 108.408 27.0093 108.327 26.8722C108.249 26.7352 108.142 26.6259 108.005 26.5444C107.871 26.463 107.721 26.4222 107.555 26.4222C107.388 26.4222 107.236 26.463 107.099 26.5444C106.966 26.6259 106.858 26.7352 106.777 26.8722C106.699 27.0093 106.66 27.163 106.66 27.3333C106.66 27.5 106.699 27.6537 106.777 27.7944C106.858 27.9315 106.966 28.0407 107.099 28.1222C107.236 28.2037 107.388 28.2444 107.555 28.2444ZM109.76 30.7333L109.577 29.9611C109.699 29.9611 109.792 29.9278 109.855 29.8611C109.918 29.7981 109.949 29.6944 109.949 29.55V25.6667H110.916V29.55C110.916 29.9241 110.807 30.2148 110.588 30.4222C110.373 30.6296 110.097 30.7333 109.76 30.7333ZM110.427 25.1833C110.282 25.1833 110.16 25.1333 110.06 25.0333C109.96 24.9333 109.91 24.8111 109.91 24.6667C109.91 24.5185 109.96 24.3963 110.06 24.3C110.16 24.2 110.282 24.15 110.427 24.15C110.575 24.15 110.697 24.2 110.794 24.3C110.894 24.3963 110.944 24.5185 110.944 24.6667C110.944 24.8111 110.894 24.9333 110.794 25.0333C110.697 25.1333 110.575 25.1833 110.427 25.1833ZM113.368 29.1111C112.994 29.1111 112.664 29.0333 112.379 28.8778C112.094 28.7222 111.872 28.5093 111.712 28.2389C111.553 27.9648 111.473 27.6519 111.473 27.3C111.473 26.963 111.551 26.6648 111.707 26.4056C111.862 26.1426 112.072 25.9352 112.335 25.7833C112.601 25.6315 112.896 25.5556 113.218 25.5556C113.548 25.5556 113.842 25.6315 114.101 25.7833C114.36 25.9315 114.564 26.1352 114.712 26.3944C114.864 26.6537 114.94 26.9481 114.94 27.2778V27.6167H112.907C112.814 27.6167 112.725 27.6111 112.64 27.6C112.555 27.5889 112.47 27.5759 112.385 27.5611C112.429 27.7833 112.538 27.9648 112.712 28.1056C112.89 28.2426 113.116 28.3111 113.39 28.3111C113.601 28.3111 113.79 28.2685 113.957 28.1833C114.127 28.0981 114.266 27.9926 114.373 27.8667L114.585 28.7333C114.418 28.8593 114.229 28.9537 114.018 29.0167C113.81 29.0796 113.594 29.1111 113.368 29.1111ZM112.362 26.9778C112.548 26.937 112.729 26.9167 112.907 26.9167H113.496C113.599 26.9167 113.698 26.9204 113.79 26.9278C113.883 26.9352 113.97 26.9481 114.051 26.9667C113.996 26.7667 113.894 26.6093 113.746 26.4944C113.601 26.3796 113.422 26.3222 113.207 26.3222C113.003 26.3222 112.825 26.3815 112.673 26.5C112.525 26.6148 112.422 26.7741 112.362 26.9778ZM115.865 29V26.4333H115.243V25.6667H115.882V24.5556H116.815V25.6667H117.476V26.4333H116.832V29H115.865ZM119.07 29.1111C118.845 29.1111 118.615 29.0741 118.382 29C118.152 28.9259 117.972 28.8259 117.843 28.7L118.082 27.7889C118.189 27.937 118.337 28.0667 118.526 28.1778C118.719 28.2889 118.917 28.3444 119.12 28.3444C119.258 28.3444 119.356 28.3185 119.415 28.2667C119.478 28.2148 119.509 28.1519 119.509 28.0778C119.509 27.9926 119.478 27.9315 119.415 27.8944C119.352 27.8537 119.287 27.8204 119.22 27.7944L118.754 27.6167C118.65 27.5759 118.532 27.5204 118.398 27.45C118.265 27.3796 118.148 27.2796 118.048 27.15C117.952 27.0204 117.904 26.85 117.904 26.6389C117.904 26.4463 117.952 26.2685 118.048 26.1056C118.145 25.9426 118.283 25.8111 118.465 25.7111C118.65 25.6074 118.872 25.5556 119.132 25.5556C119.372 25.5556 119.596 25.5963 119.804 25.6778C120.015 25.7593 120.169 25.85 120.265 25.95L120.043 26.8278C119.917 26.6648 119.767 26.5407 119.593 26.4556C119.422 26.3667 119.259 26.3222 119.104 26.3222C118.985 26.3222 118.898 26.3463 118.843 26.3944C118.787 26.4426 118.759 26.4981 118.759 26.5611C118.759 26.6093 118.778 26.6574 118.815 26.7056C118.856 26.75 118.922 26.7907 119.015 26.8278L119.448 26.9889C119.574 27.0333 119.708 27.0926 119.848 27.1667C119.993 27.2407 120.115 27.3444 120.215 27.4778C120.315 27.6074 120.365 27.787 120.365 28.0167C120.365 28.3389 120.245 28.6019 120.004 28.8056C119.767 29.0093 119.456 29.1111 119.07 29.1111Z" fill="black"/>
</svg>
