<svg width="10991" height="7874" viewBox="0 0 10991 7874" fill="none" xmlns="http://www.w3.org/2000/svg">
<path d="M10990.3 6881.44H0.981445V6886.94H10990.3V6881.44Z" fill="#DBD9D9"/>
<path d="M9889.21 7235.08H9161.27V7240.57H9889.21V7235.08Z" fill="#DBD9D9"/>
<path d="M7280.77 7294.86H7089.78V7300.36H7280.77V7294.86Z" fill="#DBD9D9"/>
<path d="M9139.29 7031.12H8717.52V7036.61H9139.29V7031.12Z" fill="#DBD9D9"/>
<path d="M2103.25 7068.04H1153.99V7073.54H2103.25V7068.04Z" fill="#DBD9D9"/>
<path d="M2438.2 7068.04H2299.08V7073.54H2438.2V7068.04Z" fill="#DBD9D9"/>
<path d="M4949.49 7160.79H2890.52V7166.29H4949.49V7160.79Z" fill="#DBD9D9"/>
<path d="M7898.38 2658.23C8534.68 2658.23 9050.5 2142.41 9050.5 1506.1C9050.5 869.804 8534.68 353.98 7898.38 353.98C7262.08 353.98 6746.25 869.804 6746.25 1506.1C6746.25 2142.41 7262.08 2658.23 7898.38 2658.23Z" fill="#C3C3C3"/>
<path d="M7810.9 2658.23C8447.2 2658.23 8963.03 2142.41 8963.03 1506.1C8963.03 869.804 8447.2 353.98 7810.9 353.98C7174.6 353.98 6658.78 869.804 6658.78 1506.1C6658.78 2142.41 7174.6 2658.23 7810.9 2658.23Z" fill="#F1EEEE"/>
<path d="M8563.96 2259.24C8979.82 1843.38 8979.82 1169.14 8563.96 753.287C8148.1 337.43 7473.87 337.43 7058.01 753.287C6642.15 1169.14 6642.15 1843.38 7058.01 2259.24C7473.87 2675.1 8148.1 2675.1 8563.96 2259.24Z" fill="white"/>
<path d="M7992.44 2281.07C7986.65 2281.08 7981.02 2279.13 7976.48 2275.54C7971.93 2271.95 7968.73 2266.93 7967.39 2261.29L7785.84 1512.26C7784.56 1505.71 7785.85 1498.92 7789.44 1493.3C7793.03 1487.68 7798.65 1483.66 7805.13 1482.08C7811.61 1480.49 7818.46 1481.47 7824.24 1484.79C7830.02 1488.12 7834.29 1493.55 7836.18 1499.95L8017.5 2249.21C8019.09 2255.88 8017.97 2262.91 8014.38 2268.76C8010.8 2274.61 8005.05 2278.8 7998.38 2280.42C7996.43 2280.85 7994.44 2281.07 7992.44 2281.07Z" fill="#F1EEEE"/>
<path d="M7810.9 1557.75C7804.12 1557.76 7797.41 1556.42 7791.14 1553.82C7784.88 1551.21 7779.2 1547.4 7774.42 1542.59L7151.32 919.493C7146.53 914.687 7142.73 908.985 7140.14 902.711C7137.56 896.438 7136.23 889.716 7136.24 882.93C7136.26 869.225 7141.72 856.09 7151.43 846.413C7161.13 836.737 7174.29 831.312 7187.99 831.333C7201.7 831.354 7214.83 836.818 7224.51 846.523L7810.9 1433.14L8153.11 1090.93C8162.82 1081.25 8175.97 1075.83 8189.67 1075.85C8203.38 1075.87 8216.51 1081.33 8226.19 1091.04C8235.86 1100.74 8241.29 1113.89 8241.27 1127.6C8241.25 1141.3 8235.78 1154.44 8226.08 1164.12L7847.39 1542.59C7837.71 1552.28 7824.59 1557.73 7810.9 1557.75Z" fill="#DBD9D9"/>
<path d="M4869.27 6721H5042.9V5531.95H4869.27V6721Z" fill="#F0F0F0"/>
<path d="M1357.29 6881.44H4928.39V6721H1357.29V6881.44Z" fill="#F0F0F0"/>
<path d="M4869.27 5531.95H1242.56V6721H4869.27V5531.95Z" fill="#F1EEEE"/>
<path d="M4634.54 5738.99H1477.07V6418.13H4634.54V5738.99Z" fill="#F0F0F0"/>
<path d="M2287.87 5829.76H3824.18C3852.95 5829.76 3876.27 5806.44 3876.27 5777.67V5768C3876.27 5739.23 3852.95 5715.91 3824.18 5715.91H2287.87C2259.1 5715.91 2235.78 5739.23 2235.78 5768V5777.67C2235.78 5806.44 2259.1 5829.76 2287.87 5829.76Z" fill="#F1EEEE"/>
<path d="M1163 5531.95H4869.27V5425.79H1163V5531.95Z" fill="#F0F0F0"/>
<path d="M5126.2 5425.79H4869.27V5531.95H5126.2V5425.79Z" fill="#C0BFBF"/>
<path d="M9445.02 4276.52H9106.55V6881.44H9445.02V4276.52Z" fill="#F0F0F0"/>
<path d="M6144.03 6881.44H9106.55V4276.52H6144.03V6881.44Z" fill="#F1EEEE"/>
<path d="M6117 6652.64H8717.96V5259.41H6117V6652.64Z" fill="#FAFAFA"/>
<path d="M6117 5111.71H8717.96V4653.02H6117V5111.71Z" fill="#FAFAFA"/>
<g style="mix-blend-mode:multiply" opacity="0.7">
<path d="M8741.26 5259.41H8717.96V6652.64H8741.26V5259.41Z" fill="#C0BFBF"/>
</g>
<g style="mix-blend-mode:multiply" opacity="0.7">
<path d="M8741.26 4653.02H8717.96V5111.71H8741.26V4653.02Z" fill="#C0BFBF"/>
</g>
<g style="mix-blend-mode:multiply" opacity="0.7">
<path d="M9445.02 4386.42H6136.56V4445.32H9445.02V4386.42Z" fill="#C0BFBF"/>
</g>
<path d="M9484.58 4240.92H9106.55V4411.25H9484.58V4240.92Z" fill="#F0F0F0"/>
<path d="M6104.47 4411.25H9106.55V4240.92H6104.47V4411.25Z" fill="#F1EEEE"/>
<path d="M7230.66 3739.36C7210.24 3707.19 7196.77 3671.11 7191.1 3633.43C7185.14 3595.79 7183.22 3557.62 7185.39 3519.58C7190.09 3443.88 7206.25 3369.33 7233.3 3298.47C7246.18 3263.31 7260.85 3228.83 7277.26 3195.17C7294.84 3162.2 7312.42 3129.23 7332.2 3097.8C7351.98 3066.37 7373.74 3036.04 7396.16 3006.59C7418.58 2977.14 7443.86 2949.67 7470.01 2923.07C7457.26 2958.46 7442.1 2991.87 7426.05 3025.27C7410.01 3058.68 7397.48 3092.31 7382.09 3124.84L7339.46 3223.74L7319.9 3273.63L7309.79 3298.47L7300.99 3323.53C7275.89 3389.57 7255.97 3457.47 7241.43 3526.61C7233.88 3561.16 7228.74 3596.19 7226.05 3631.45C7222.77 3667.46 7224.32 3703.76 7230.66 3739.36Z" fill="#C0BFBF"/>
<path d="M6804.06 3797.61C6806.88 3744.54 6802.22 3691.34 6790.21 3639.58C6778.97 3592.39 6756.92 3548.45 6725.81 3511.22C6692.64 3474.33 6653.39 3443.41 6609.76 3419.79C6564.71 3393.64 6515.04 3373.2 6463.82 3349.02C6520.73 3342.95 6578.28 3349.1 6632.62 3367.04C6660.69 3376.24 6687.56 3388.78 6712.62 3404.41C6738.26 3420.91 6761.42 3440.96 6781.42 3463.97C6821.33 3511.04 6844.52 3570.02 6847.35 3631.67C6850.38 3690.12 6835.26 3748.08 6804.06 3797.61Z" fill="#C0BFBF"/>
<path d="M6823.18 3789.91C6821.31 3728.07 6815.51 3666.4 6805.81 3605.29C6796.74 3547.06 6780.58 3490.15 6757.68 3435.84C6734.77 3382.44 6703.29 3333.14 6664.49 3289.9C6622.6 3245.18 6576.04 3205.1 6525.58 3170.33C6590.58 3180.41 6651.9 3207.05 6703.61 3247.7C6756.62 3289.81 6798.26 3344.51 6824.72 3406.82C6850.81 3468.15 6863.76 3534.26 6862.74 3600.9C6863.12 3666 6849.63 3730.43 6823.18 3789.91Z" fill="#C0BFBF"/>
<path d="M7201.43 3677.6C7153.69 3615.65 7113.13 3548.48 7080.55 3477.38C7047.42 3406.46 7020.15 3332.95 6999.01 3257.59C6977.61 3182.03 6963.41 3104.61 6956.59 3026.37C6949.39 2948.15 6953.01 2869.31 6967.36 2792.08C6983.4 2869.22 6995.71 2943.73 7013.29 3017.8C7030.88 3091.87 7048.46 3164.84 7069.34 3237.59C7090.22 3310.34 7111.32 3383.09 7133.96 3455.84C7156.59 3528.59 7179.67 3602.44 7201.43 3677.6Z" fill="#C0BFBF"/>
<path d="M7181.65 3672.11C7127.24 3618.89 7078.75 3559.93 7037.03 3496.28C6995.25 3432.8 6958.51 3366.15 6927.14 3296.93C6895.33 3227.55 6870.02 3155.37 6851.53 3081.32C6832.82 3007.14 6824.31 2930.76 6826.25 2854.28C6853.95 2925.93 6877.9 2995.38 6906.26 3063.74C6934.61 3132.09 6962.74 3199.79 6994.17 3266.82C7025.6 3333.86 7055.93 3400.67 7088.02 3467.93C7120.11 3535.18 7151.1 3602.22 7181.65 3672.11Z" fill="#C0BFBF"/>
<path d="M7263.41 3742.44C7201.78 3709.81 7144.55 3669.48 7093.08 3622.44C7041.24 3575.71 6993.92 3524.19 6951.75 3468.59C6908.72 3413.28 6871.87 3353.44 6841.86 3290.12C6811.82 3226.85 6791.8 3159.31 6782.52 3089.89C6820.32 3149.01 6853.73 3206.82 6892.41 3261.99C6931.09 3317.15 6968.46 3371.88 7009.56 3424.41C7050.66 3476.94 7091.76 3529.69 7134.4 3582C7177.03 3634.31 7220.33 3687.49 7263.41 3742.44Z" fill="#C0BFBF"/>
<path d="M7144.07 3672.55C7084.19 3647.9 7028.68 3613.76 6979.67 3571.45C6930.22 3529.85 6885.95 3482.48 6847.79 3430.34C6828.41 3404.34 6810.5 3377.26 6794.16 3349.24C6778.25 3320.82 6764.09 3291.46 6751.75 3261.33C6726.46 3201.63 6710.95 3138.25 6705.81 3073.63C6740.32 3128.79 6768.67 3183.52 6802.96 3234.95C6818.34 3261.55 6836.8 3286.16 6852.85 3312.1C6868.89 3338.03 6887.57 3362.21 6906.48 3386.38C6942.81 3435.32 6980.91 3483.31 7020.77 3530.34C7059.45 3578.04 7100.11 3624.41 7144.07 3672.55Z" fill="#C0BFBF"/>
<path d="M7237.7 3710.13C7209.27 3690.06 7186.54 3662.95 7171.76 3631.45C7156.49 3600.01 7145.76 3566.56 7139.89 3532.1C7128.9 3463.78 7130.84 3393.99 7145.6 3326.38C7152.72 3293.21 7161.52 3260.41 7171.98 3228.14C7184.51 3196.71 7195.72 3164.84 7210.66 3134.73C7225.61 3104.62 7241.43 3075.17 7259.23 3046.81C7277.54 3018.72 7297.28 2991.57 7318.36 2965.49C7311.32 2998.68 7301.43 3030.11 7291.98 3061.54C7282.53 3092.97 7274.62 3124.62 7264.29 3155.17C7253.96 3185.72 7247.81 3217.37 7238.35 3247.92L7227.58 3294.29C7223.85 3309.68 7219.45 3325.06 7217.25 3340.67C7203.99 3401.69 7197.22 3463.94 7197.03 3526.39C7196.76 3557.58 7199.56 3588.72 7205.39 3619.36C7210.88 3651.24 7221.81 3681.95 7237.7 3710.13Z" fill="#C0BFBF"/>
<path d="M7196.82 3640.02C7148.63 3588.51 7113.71 3526.05 7095.05 3458.04C7074.76 3389.36 7068.26 3317.36 7075.93 3246.16C7077.03 3228.36 7081.43 3210.99 7084.28 3193.41L7089.34 3167.04L7097.03 3141.54C7102.75 3124.62 7107.58 3107.69 7113.96 3091.21C7120.33 3074.73 7128.68 3058.9 7135.93 3043.08L7147.8 3019.56L7162.09 2997.58L7191.1 2953.62C7212.79 2926.57 7236.21 2900.95 7261.21 2876.92C7249.78 2910.11 7234.62 2940.22 7222.31 2971.43L7204.95 3018.24L7196.16 3040.22L7189.12 3063.96C7184.51 3079.56 7179.67 3095.17 7174.62 3110.55L7163.85 3157.81L7158.13 3181.32L7154.84 3205.06C7152.86 3220.89 7148.9 3236.71 7148.02 3252.53C7141.32 3316.52 7142.21 3381.07 7150.66 3444.85C7158.8 3511.41 7174.28 3576.86 7196.82 3640.02Z" fill="#C0BFBF"/>
<path d="M7104.07 3613.21L6789.11 3332.98L6835.71 3713.43L7104.07 3613.21Z" fill="#C0BFBF"/>
<path d="M6497.01 3561.99H7410.89L7291.1 4240.92H6616.8L6497.01 3561.99Z" fill="#F1EEEE"/>
<path d="M7068.02 3561.99H7410.89L7291.1 4240.92H7111.1L7068.02 3561.99Z" fill="#DBD9D9"/>
<path d="M8217.95 3740.68C8222.25 3710.67 8220.98 3680.12 8214.21 3650.57C8208.4 3622.29 8199.32 3594.78 8187.18 3568.59C8162.55 3516.03 8131.3 3466.84 8094.21 3422.21C8085.85 3410.12 8075.08 3400.23 8065.63 3388.58C8056.18 3376.93 8046.51 3366.6 8036.4 3354.95C8014.42 3332.98 7995.52 3311 7973.76 3289.02C7952 3267.04 7931.12 3245.06 7909.15 3223.08C7887.17 3201.1 7865.19 3179.13 7843.21 3155.17C7872.88 3166.38 7901.01 3180.22 7929.59 3194.29C7957.31 3209.53 7984.23 3226.19 8010.25 3244.18C8023.36 3253.17 8035.98 3262.85 8048.05 3273.19C8060.36 3283.3 8072.45 3293.85 8084.54 3304.18C8107.97 3326.3 8129.99 3349.86 8150.47 3374.74C8192.68 3425.55 8223.48 3484.84 8240.8 3548.59C8249.14 3580.85 8252.04 3614.28 8249.38 3647.49C8247.88 3680.89 8236.99 3713.2 8217.95 3740.68Z" fill="#C0BFBF"/>
<path d="M8731.81 3648.59C8708.65 3628.63 8691.52 3602.6 8682.36 3573.42C8677.28 3558.4 8673.96 3542.84 8672.47 3527.05C8672.03 3519 8672.03 3510.92 8672.47 3502.87C8672.21 3494.83 8672.94 3486.78 8674.66 3478.92C8687.57 3416.39 8720.24 3359.68 8767.85 3317.15C8778.84 3306.38 8791.37 3297.81 8803.02 3288.14C8814.61 3278.51 8826.96 3269.84 8839.94 3262.2C8852.69 3254.73 8865.44 3247.04 8878.63 3240.23C8885 3236.71 8891.37 3232.75 8898.19 3229.68L8918.41 3221.1C8932.04 3215.39 8945.66 3210.12 8959.29 3204.84C8972.84 3199.36 8986.8 3194.95 9001.05 3191.65C9029.36 3184.28 9058.05 3178.41 9086.98 3174.07C9064.26 3192.07 9040.56 3208.8 9015.99 3224.18C9003.91 3231.43 8992.48 3239.57 8981.05 3247.92C8969.62 3256.27 8959.07 3263.74 8946.32 3271.44C8922.36 3285.72 8902.36 3303.96 8880.38 3319.35C8869.41 3327.04 8858.98 3335.49 8849.17 3344.63C8839.06 3353.42 8827.2 3361.33 8818.84 3370.56C8780.78 3404.21 8750.74 3445.97 8730.93 3492.76C8726.74 3504.53 8723.36 3516.57 8720.82 3528.81C8718.79 3541.53 8717.77 3554.39 8717.74 3567.27C8717.74 3594.98 8722.49 3622.49 8731.81 3648.59Z" fill="#C0BFBF"/>
<path d="M8708.29 3648.59C8668.59 3596.88 8646.97 3533.56 8646.75 3468.36C8645.84 3401.59 8662.84 3335.79 8695.98 3277.81L8722.36 3236.05C8732.47 3223.08 8743.24 3210.77 8754.01 3198.47L8770.49 3180.22L8788.51 3164.4L8825.44 3133.41C8851.54 3115.3 8878.61 3098.65 8906.54 3083.52C8935.21 3070.52 8964.56 3059.07 8994.46 3049.23C8972.48 3072.53 8950.5 3093.19 8926.98 3112.97C8903.46 3132.75 8884.34 3155.39 8863.68 3176.27C8854.01 3187.7 8844.56 3198.25 8834.67 3209.46L8819.94 3225.5L8807.42 3243.08C8799.06 3254.73 8789.83 3265.06 8781.7 3277.37L8759.72 3313.63C8731.85 3362.55 8713.02 3416.08 8704.12 3471.66C8695.01 3530.42 8696.42 3590.33 8708.29 3648.59Z" fill="#C0BFBF"/>
<path d="M8246.08 3681.12C8264.32 3613.21 8284.1 3547.71 8303.22 3483.31C8322.34 3418.91 8341.03 3353.2 8358.17 3288.14C8375.31 3223.08 8389.6 3157.59 8402.13 3090.33C8414.66 3023.08 8421.47 2958.46 8427.4 2887.25C8450.5 2954.37 8461.37 3025.09 8459.49 3096.05C8456.84 3166.69 8446.6 3236.84 8428.94 3305.28C8411.01 3373.32 8386.81 3439.54 8356.63 3503.09C8327.14 3566.7 8290.02 3626.48 8246.08 3681.12Z" fill="#C0BFBF"/>
<path d="M8268.94 3670.13C8297.51 3604.19 8328.28 3538.26 8358.61 3475.18C8388.94 3412.1 8419.49 3347.92 8448.72 3284.18C8477.95 3220.45 8506.09 3156.49 8532.24 3091.65C8558.4 3026.81 8580.82 2959.78 8602.79 2890.76C8609.59 2963.73 8604.32 3037.32 8587.19 3108.57C8569.85 3179.43 8545.79 3248.46 8515.32 3314.73C8484.71 3380.48 8448.92 3443.69 8408.28 3503.75C8368.03 3564.12 8321.31 3619.91 8268.94 3670.13Z" fill="#C0BFBF"/>
<path d="M8179.48 3753.87C8222.34 3694.97 8267.4 3639.36 8311.36 3583.75C8355.31 3528.15 8399.27 3473.86 8441.91 3417.81C8484.55 3361.77 8526.31 3306.16 8566.31 3248.58C8606.31 3190.99 8642.8 3131.65 8679.94 3068.79C8670.21 3141.43 8648.6 3211.97 8615.98 3277.59C8583.3 3342.77 8544.44 3404.67 8499.93 3462.43C8455.39 3519.64 8406.37 3573.21 8353.34 3622.66C8300.34 3672.6 8242.05 3716.6 8179.48 3753.87Z" fill="#C0BFBF"/>
<path d="M8313.99 3658.04C8355.97 3605.51 8397.95 3555.84 8439.27 3505.51C8480.59 3455.18 8520.59 3405.29 8559.72 3354.52C8598.84 3303.74 8635.1 3251.44 8669.61 3198.03C8704.12 3144.62 8735.55 3088.13 8769.39 3029.67C8764.45 3097.24 8747.79 3163.43 8720.16 3225.28C8692.64 3287.05 8657.89 3345.33 8616.64 3398.91C8575.76 3452.23 8529.67 3501.34 8479.05 3545.51C8429.24 3590.14 8373.74 3627.98 8313.99 3658.04Z" fill="#C0BFBF"/>
<path d="M8206.52 3719.36C8230.37 3671.69 8241.86 3618.78 8239.93 3565.51C8237.02 3514.66 8224.02 3464.9 8201.68 3419.13L8194.21 3401.33L8184.76 3384.19L8166.3 3349.46C8151.57 3327.48 8138.38 3303.96 8122.34 3281.33C8106.3 3258.69 8091.79 3236.05 8075.52 3213.41C8058.45 3190.64 8042.53 3167.02 8027.83 3142.64C8053.11 3156.54 8077.61 3171.8 8101.24 3188.36C8124.29 3205.9 8146.3 3224.76 8167.18 3244.84C8177.6 3255.05 8187.37 3265.92 8196.41 3277.37C8205.79 3288.65 8215.02 3300.08 8224.1 3311.66L8247.62 3349.68L8258.83 3369.02L8268.06 3389.68C8294.87 3445.4 8304.81 3507.74 8296.63 3569.03C8292.73 3598.93 8282.71 3627.7 8267.21 3653.57C8251.71 3679.43 8231.05 3701.83 8206.52 3719.36Z" fill="#C0BFBF"/>
<path d="M8247.4 3649.25C8265.48 3594.78 8277.85 3538.58 8284.32 3481.55C8290.26 3428.39 8286.31 3374.59 8272.67 3322.87C8265.82 3297.37 8256.24 3272.68 8244.1 3249.24C8232.01 3225.06 8217.74 3202.03 8201.46 3180.44C8166.48 3134.72 8128.13 3091.67 8086.73 3051.65C8145.62 3069.09 8199.6 3100.1 8244.32 3142.2C8267.64 3163.65 8287.91 3188.2 8304.54 3215.17C8321.69 3242.41 8334.73 3272.04 8343.23 3303.09C8359.78 3365.22 8358.79 3430.72 8340.37 3492.32C8323.72 3551.9 8291.65 3606.03 8247.4 3649.25Z" fill="#C0BFBF"/>
<path d="M8354.87 3597.16L8698.62 3267.04L8684.77 3590.79L8354.87 3597.16Z" fill="#C0BFBF"/>
<path d="M7978.82 3561.99H8892.69L8772.91 4240.92H8098.6L7978.82 3561.99Z" fill="#F1EEEE"/>
<path d="M8549.61 3561.99H8892.69L8772.91 4240.92H8592.9L8549.61 3561.99Z" fill="#DBD9D9"/>
<path d="M2283.91 470.687V4031.24C2283.91 4179.3 2225.09 4321.3 2120.4 4425.99C2015.71 4530.68 1873.71 4589.5 1725.65 4589.5H4319.14C4467.22 4589.5 4609.24 4530.69 4713.97 4426C4818.7 4321.32 4877.56 4179.32 4877.62 4031.24V470.687H2283.91Z" fill="#F1EEEE"/>
<path d="M4470.57 1372.03H2794.7V3047.91H4470.57V1372.03Z" fill="#F0F0F0"/>
<path d="M4419.14 1320.38H2743.27V2996.26H4419.14V1320.38Z" fill="white"/>
<path d="M3154.71 3244.4H2728.54V3670.57H3154.71V3244.4Z" fill="white"/>
<path d="M4418.92 3244.4H3992.76V3670.57H4418.92V3244.4Z" fill="white"/>
<path d="M3786.82 3244.4H3360.65V3670.57H3786.82V3244.4Z" fill="white"/>
<path d="M4878.06 470.687H2283.91V894.437H4878.06V470.687Z" fill="#F0F0F0"/>
<path d="M2440.62 334.64V606.736C2440.59 616.702 2442.53 626.575 2446.33 635.788C2450.13 645.001 2455.72 653.371 2462.76 660.418C2469.81 667.465 2478.18 673.05 2487.39 676.85C2496.61 680.65 2506.48 682.592 2516.45 682.563C2526.4 682.563 2536.26 680.601 2545.46 676.791C2554.66 672.98 2563.02 667.395 2570.06 660.354C2577.1 653.312 2582.69 644.953 2586.5 635.754C2590.31 626.554 2592.27 616.694 2592.27 606.736V334.64C2592.21 314.547 2584.21 295.294 2570 281.086C2555.79 266.878 2536.54 258.871 2516.45 258.813C2496.34 258.813 2477.05 266.802 2462.83 281.022C2448.61 295.242 2440.62 314.529 2440.62 334.64Z" fill="#C0BFBF"/>
<path d="M4570.8 334.64V606.736C4570.8 626.847 4578.79 646.133 4593.01 660.354C4607.23 674.574 4626.51 682.563 4646.62 682.563C4656.59 682.592 4666.46 680.65 4675.68 676.85C4684.89 673.05 4693.26 667.465 4700.31 660.418C4707.35 653.371 4712.94 645.001 4716.74 635.788C4720.54 626.575 4722.48 616.702 4722.45 606.736V334.64C4722.45 314.529 4714.46 295.242 4700.24 281.022C4686.02 266.802 4666.73 258.813 4646.62 258.813C4626.53 258.871 4607.28 266.878 4593.07 281.086C4578.86 295.294 4570.86 314.547 4570.8 334.64Z" fill="#C0BFBF"/>
<path d="M4144.63 334.639V606.736C4144.63 616.693 4146.59 626.554 4150.4 635.753C4154.21 644.953 4159.8 653.312 4166.84 660.353C4173.88 667.394 4182.24 672.98 4191.44 676.79C4200.64 680.601 4210.5 682.562 4220.46 682.562C4230.41 682.562 4240.27 680.601 4249.47 676.79C4258.67 672.98 4267.03 667.394 4274.07 660.353C4281.12 653.312 4286.7 644.953 4290.51 635.753C4294.32 626.554 4296.28 616.693 4296.28 606.736V334.639C4296.23 314.622 4288.28 295.435 4274.17 281.24C4260.05 267.044 4240.91 258.986 4220.9 258.813C4210.91 258.784 4201.02 260.722 4191.78 264.517C4182.54 268.312 4174.14 273.889 4167.06 280.93C4159.98 287.972 4154.35 296.339 4150.5 305.554C4146.65 314.769 4144.66 324.653 4144.63 334.639Z" fill="#C0BFBF"/>
<path d="M3718.46 334.64V606.736C3718.43 616.702 3720.38 626.575 3724.18 635.788C3727.98 645.001 3733.56 653.371 3740.61 660.418C3747.65 667.465 3756.02 673.05 3765.24 676.85C3774.45 680.65 3784.32 682.592 3794.29 682.563C3814.26 682.389 3833.36 674.316 3847.4 660.108C3861.45 645.901 3869.3 626.713 3869.24 606.736V334.64C3869.24 314.567 3861.28 295.314 3847.11 281.1C3832.93 266.886 3813.7 258.871 3793.63 258.813C3773.63 258.987 3754.52 267.052 3740.44 281.254C3726.36 295.455 3718.46 314.643 3718.46 334.64Z" fill="#C0BFBF"/>
<path d="M3292.29 334.64V606.736C3292.27 616.684 3294.2 626.539 3297.99 635.737C3301.77 644.935 3307.34 653.296 3314.36 660.34C3321.39 667.384 3329.73 672.973 3338.92 676.787C3348.1 680.6 3357.95 682.563 3367.9 682.563C3377.87 682.592 3387.74 680.65 3396.95 676.85C3406.17 673.05 3414.54 667.465 3421.58 660.418C3428.63 653.371 3434.21 645.001 3438.02 635.788C3441.82 626.575 3443.76 616.702 3443.73 606.736V334.64C3443.73 314.529 3435.74 295.242 3421.52 281.022C3407.3 266.802 3388.01 258.813 3367.9 258.813C3347.83 258.871 3328.6 266.886 3314.43 281.1C3300.25 295.314 3292.29 314.567 3292.29 334.64Z" fill="#C0BFBF"/>
<path d="M2865.91 334.64V606.736C2865.91 616.694 2867.87 626.554 2871.68 635.754C2875.49 644.953 2881.08 653.312 2888.12 660.354C2895.16 667.395 2903.52 672.98 2912.72 676.791C2921.92 680.601 2931.78 682.563 2941.73 682.563C2951.69 682.563 2961.55 680.601 2970.75 676.791C2979.95 672.98 2988.31 667.395 2995.35 660.354C3002.39 653.312 3007.98 644.953 3011.79 635.754C3015.6 626.554 3017.56 616.694 3017.56 606.736V334.64C3017.5 314.547 3009.5 295.294 2995.29 281.086C2981.08 266.878 2961.83 258.871 2941.73 258.813C2921.64 258.871 2902.39 266.878 2888.18 281.086C2873.97 295.294 2865.97 314.547 2865.91 334.64Z" fill="#C0BFBF"/>
<path d="M4086.17 4354.77C4086.17 4416.73 4110.78 4476.16 4154.6 4519.97C4198.41 4563.79 4257.84 4588.4 4319.8 4588.4H1400.81C1338.84 4588.4 1279.42 4563.79 1235.6 4519.97C1191.79 4476.16 1167.17 4416.73 1167.17 4354.77H4086.17Z" fill="#C0BFBF"/>
<path d="M5495.66 7874C7849.2 7874 9757.12 7762.61 9757.12 7625.2C9757.12 7487.79 7849.2 7376.4 5495.66 7376.4C3142.13 7376.4 1234.21 7487.79 1234.21 7625.2C1234.21 7762.61 3142.13 7874 5495.66 7874Z" fill="#F1EEEE"/>
<path opacity="0.2" d="M5926.22 5526.01C5926.22 5526.01 4311.01 6479.67 4311.01 7383.22H7541.88C7541.66 6479.67 5926.22 5526.01 5926.22 5526.01Z" fill="#0A5F59"/>
<path opacity="0.2" d="M5926.22 6663.85C5926.22 6663.85 4434.75 7033.31 4434.75 7383.21H7417.7C7417.7 7033.31 5926.22 6663.85 5926.22 6663.85Z" fill="#0A5F59"/>
<path opacity="0.3" d="M6122.28 5789.32C6425.58 6087.57 7015.05 6748.47 7015.05 7383.21H6610.86C6610.86 6748.47 6288.21 6087.57 6122.28 5789.32Z" fill="white"/>
<path opacity="0.2" d="M5926.22 5526.01C5926.22 5526.01 4311.01 4572.36 4311.01 3668.81H7541.88C7541.66 4572.36 5926.22 5526.01 5926.22 5526.01Z" fill="#0A5F59"/>
<path opacity="0.2" d="M5926.22 5438.98C5926.22 5438.98 5101.58 5043.36 5101.58 4667.52H6751.09C6751.09 5042.7 5926.22 5438.98 5926.22 5438.98Z" fill="#0A5F59"/>
<path opacity="0.3" d="M5750.17 5262.71C5447.09 4964.46 4858.28 4303.56 4858.28 3668.81H5262.47C5261.59 4303.56 5583.58 4964.46 5750.17 5262.71Z" fill="white"/>
<path opacity="0.3" d="M6122.28 5262.71C6425.58 4964.46 7000.32 4227.07 7015.05 3668.81H6907.36C6856.8 4349.49 6362.28 4974.13 6122.28 5262.71Z" fill="white"/>
<path d="M7322.31 3349.9H7139.23V3371.88H7322.31V3349.9Z" fill="#0A5F59"/>
<path d="M7943.87 3651.89H7921.89C7921.83 3577.68 7892.35 3506.53 7839.89 3454.03C7787.44 3401.54 7716.31 3371.99 7642.1 3371.88H7448.91V3349.9H7642.1C7722.12 3350.07 7798.81 3381.95 7855.37 3438.56C7911.93 3495.16 7943.76 3571.87 7943.87 3651.89Z" fill="#0A5F59"/>
<path d="M7641.88 3426.82H4210.57C4086.27 3426.82 3985.5 3527.59 3985.5 3651.89V3685.73C3985.5 3810.03 4086.27 3910.8 4210.57 3910.8H7641.88C7766.18 3910.8 7866.95 3810.03 7866.95 3685.73V3651.89C7866.95 3527.59 7766.18 3426.82 7641.88 3426.82Z" fill="#0A5F59"/>
<path d="M7641.88 7141.23H4210.57C4086.27 7141.23 3985.5 7241.99 3985.5 7366.29V7400.14C3985.5 7524.44 4086.27 7625.2 4210.57 7625.2H7641.88C7766.18 7625.2 7866.95 7524.44 7866.95 7400.14V7366.29C7866.95 7241.99 7766.18 7141.23 7641.88 7141.23Z" fill="#0A5F59"/>
<path d="M3093.83 5169.74L2944.81 5037.43L3198.89 4647.3L3347.9 4779.4L3093.83 5169.74Z" fill="#FF8B7B"/>
<path d="M2975.58 4953.47L3165.04 5085.34C3166.66 5086.35 3168.06 5087.67 3169.16 5089.22C3170.27 5090.77 3171.06 5092.53 3171.49 5094.38C3171.92 5096.24 3171.98 5098.17 3171.66 5100.05C3171.35 5101.93 3170.66 5103.72 3169.65 5105.34L3074.71 5261.83C3069.24 5269.7 3060.89 5275.1 3051.48 5276.87C3042.06 5278.64 3032.32 5276.63 3024.37 5271.28C2958.44 5224.47 2934.04 5201.61 2855.14 5137.87C2777.15 5076.58 2702.33 5011.36 2630.96 4942.48C2572.49 4881.82 2634.25 4823.13 2665.24 4844.01C2738.43 4893.69 2865.69 4948.41 2939.32 4944.02C2952.12 4943 2964.9 4946.33 2975.58 4953.47Z" fill="#263238"/>
<path opacity="0.2" d="M3347.68 4779.62L3198.67 4647.3L3076.46 4835.22L3229.22 4962.04L3347.68 4779.62Z" fill="black"/>
<path d="M4863.77 2830.76C4863.77 2830.76 3863.74 2762.41 3739.78 3101.32C3457.79 3871.9 3090.97 4689.28 3090.97 4689.28L3385.7 4902.7C3385.7 4902.7 4008.8 3949.92 4198.92 3338.25C4583.54 3431.66 5278.95 3511.44 5502.91 3254.29C5694.13 3034.51 5551.05 2830.76 5551.05 2830.76H4863.77Z" fill="#263238"/>
<path opacity="0.3" d="M4007.26 3429.68C3983.97 3523.75 3948.58 3793.21 3926.6 3971.9C3975.17 3877.83 4021.33 3782.44 4062.87 3689.25L4007.26 3429.68Z" fill="black"/>
<path d="M3366.8 4999.18L3032.51 4737.2L3100.86 4590.38L3474.5 4875.88L3366.8 4999.18Z" fill="#0A5F59"/>
<path d="M2895.36 4941.38C2910.86 4951.47 2927.36 4959.94 2944.59 4966.65C2945.45 4966.95 2946.37 4967 2947.26 4966.8C2948.14 4966.6 2948.95 4966.15 2949.6 4965.51C2950.24 4964.86 2950.69 4964.05 2950.89 4963.17C2951.09 4962.28 2951.04 4961.36 2950.75 4960.5C2947.89 4953.03 2922.83 4887.31 2896.68 4880.94C2893.68 4880.25 2890.55 4880.33 2887.59 4881.18C2884.64 4882.02 2881.94 4883.61 2879.75 4885.77C2876.08 4888.69 2873.23 4892.51 2871.49 4896.87C2869.76 4901.23 2869.2 4905.97 2869.86 4910.61C2874.31 4923.64 2883.38 4934.59 2895.36 4941.38ZM2937.78 4953.47C2903.27 4938.52 2881.73 4922.04 2879.31 4909.51C2878.94 4906.45 2879.39 4903.35 2880.63 4900.52C2881.86 4897.7 2883.84 4895.26 2886.35 4893.47C2887.36 4892.37 2888.65 4891.57 2890.08 4891.15C2891.51 4890.72 2893.03 4890.69 2894.48 4891.05C2908.55 4894.56 2926.79 4927.31 2937.78 4953.47Z" fill="#0A5F59"/>
<path d="M2943.49 4966C2944.21 4966.2 2944.97 4966.2 2945.69 4966C2946.51 4966.08 2947.34 4965.97 2948.11 4965.66C2948.87 4965.36 2949.55 4964.87 2950.09 4964.24C2951.62 4962.48 2988.99 4916.54 2983.49 4888.19C2982.77 4884.57 2981.22 4881.16 2978.98 4878.22C2976.73 4875.29 2973.84 4872.91 2970.53 4871.27C2967.15 4869.15 2963.17 4868.2 2959.2 4868.56C2955.23 4868.91 2951.49 4870.56 2948.55 4873.25C2931.84 4888.85 2932.5 4941.6 2942.39 4963.36C2942.54 4964.31 2942.92 4965.22 2943.49 4966ZM2967.89 4881.82C2969.48 4882.87 2970.84 4884.23 2971.9 4885.81C2972.96 4887.4 2973.68 4889.18 2974.04 4891.05C2977.34 4907.75 2959.54 4936.54 2947.89 4952.37C2941.73 4930.39 2943.71 4891.27 2954.48 4881.16C2956.68 4879.18 2959.76 4877.2 2966.13 4881.16L2967.89 4881.82Z" fill="#0A5F59"/>
<path d="M4407.71 5400.3L4215.4 5438.76L4179.8 4923.8L4375.19 4929.95L4407.71 5400.3Z" fill="#FF8B7B"/>
<path d="M4189.25 5368.43L4409.03 5275.9C4410.83 5275.01 4412.79 5274.5 4414.79 5274.38C4416.79 5274.27 4418.79 5274.56 4420.68 5275.24C4422.57 5275.91 4424.3 5276.96 4425.77 5278.32C4427.24 5279.68 4428.43 5281.32 4429.25 5283.15L4513.21 5451.94C4517.05 5461.08 4517.16 5471.35 4513.5 5480.56C4509.84 5489.77 4502.71 5497.17 4493.65 5501.18C4416.73 5532.17 4378.48 5542.94 4282 5583.82C4222.65 5608.87 4062.21 5681.4 3976.49 5702.72C3890.78 5724.04 3871.43 5638.1 3906.16 5621.4C3988.36 5581.84 4124.63 5461.18 4161.33 5394.58C4167.59 5383.09 4177.37 5373.92 4189.25 5368.43Z" fill="#263238"/>
<path d="M4134.52 5431.72C4151.84 5423.81 4168.26 5414.09 4183.53 5402.71C4184.29 5402.13 4184.87 5401.35 4185.22 5400.46C4185.57 5399.57 4185.67 5398.6 4185.51 5397.66C4185.25 5396.73 4184.75 5395.9 4184.05 5395.24C4183.35 5394.58 4182.49 5394.13 4181.55 5393.92C4173.64 5392.16 4102.43 5377.88 4082.43 5397.22C4080.15 5399.42 4078.49 5402.18 4077.6 5405.23C4076.71 5408.27 4076.64 5411.5 4077.37 5414.58C4077.87 5419.34 4079.61 5423.88 4082.43 5427.74C4085.25 5431.6 4089.04 5434.64 4093.42 5436.56C4107.24 5440.1 4121.89 5438.37 4134.52 5431.72ZM4168.15 5401.39C4136.28 5423.37 4110.12 5432.82 4097.16 5427.77C4094.26 5426.44 4091.79 5424.35 4090.01 5421.71C4088.22 5419.08 4087.2 5416 4087.05 5412.82C4086.62 5411.33 4086.6 5409.75 4086.99 5408.24C4087.37 5406.73 4088.15 5405.36 4089.24 5404.25C4100.01 5393.92 4139.57 5396.56 4168.15 5401.39Z" fill="#0A5F59"/>
<path d="M4182.43 5403.37C4183.18 5402.99 4183.85 5402.46 4184.41 5401.83C4184.78 5401.12 4184.97 5400.33 4184.97 5399.53C4184.97 5398.72 4184.78 5397.93 4184.41 5397.22C4184.41 5394.8 4164.19 5336.78 4136.5 5326.01C4132.94 5324.59 4129.09 5324.03 4125.27 5324.37C4121.45 5324.71 4117.77 5325.95 4114.52 5327.99C4110.66 5329.7 4107.51 5332.69 4105.59 5336.45C4103.67 5340.21 4103.1 5344.51 4103.97 5348.65C4108.36 5370.62 4154.74 5400.3 4179.14 5403.59C4180.22 5403.95 4181.4 5403.87 4182.43 5403.37ZM4122.43 5335.46C4124.24 5334.7 4126.18 5334.3 4128.15 5334.3C4130.11 5334.3 4132.05 5334.7 4133.86 5335.46C4150.34 5341.83 4165.51 5373.26 4172.98 5392.16C4151 5384.91 4117.38 5362.27 4114.52 5346.89C4114.52 5344.03 4114.52 5340.29 4120.45 5336.78L4122.43 5335.46Z" fill="#0A5F59"/>
<path opacity="0.2" d="M4375.41 4930.17L4179.8 4923.8L4198.48 5192.82L4393.21 5189.3L4375.41 4930.17Z" fill="black"/>
<path d="M5349.5 2830.76C5349.5 2830.76 3920.89 2965.93 3972.32 3396.06C4047.48 4016.52 4102.43 5102.92 4102.43 5102.92L4466.62 5117.21C4466.62 5117.21 4603.33 4162.01 4523.32 3526.61C4893.22 3526.61 5696.77 3546.17 5838.09 3354.96C6005.79 3128.14 5928.2 2830.76 5928.2 2830.76H5349.5Z" fill="#263238"/>
<path d="M4506.84 5139.63L4069.68 5117.87L4054.08 4927.75L4533.43 4960.72L4506.84 5139.63Z" fill="#0A5F59"/>
<path d="M5032.35 1571.16C5029.27 1610.5 5025.76 1645.45 5020.92 1682.15C5016.09 1718.86 5011.47 1754.68 5005.76 1790.95C4995.21 1863.26 4980.7 1935.13 4964.44 2007.44C4948.17 2079.75 4928.17 2151.84 4903.12 2224.59C4877.68 2301.12 4844.31 2374.78 4803.55 2444.38C4779.22 2485.32 4749.67 2522.93 4715.64 2556.25C4706.63 2564.67 4697.16 2572.6 4687.28 2579.99C4678.27 2587.46 4669.26 2593.83 4660.03 2600.21C4642.46 2612.6 4624.18 2623.98 4605.3 2634.27C4535.61 2672.19 4461.88 2702.2 4385.52 2723.73C4349.25 2734.94 4312.77 2743.95 4275.62 2752.08C4238.48 2760.21 4203.09 2767.24 4165.73 2772.96C4093 2784.86 4019.59 2792.2 3945.94 2794.94C3927.78 2795.71 3909.96 2789.87 3895.78 2778.51C3881.59 2767.15 3872 2751.03 3868.79 2733.15C3865.57 2715.26 3868.94 2696.81 3878.28 2681.22C3887.61 2665.63 3902.28 2653.95 3919.57 2648.34L3922.42 2647.24C4051.31 2606.47 4177.75 2558.33 4301.12 2503.06C4357.84 2477.39 4412.13 2446.64 4463.32 2411.19C4474.97 2402.84 4485.3 2394.27 4495.85 2385.69C4500.68 2381.52 4505.74 2377.34 4509.92 2372.95C4513.81 2369.44 4517.48 2365.7 4520.91 2361.74C4535.5 2344.1 4548.03 2324.85 4558.27 2304.37C4584.94 2250.21 4606.36 2193.61 4622.23 2135.36C4640.03 2073.6 4655.42 2009.2 4668.16 1943.7C4680.91 1878.21 4692.34 1811.83 4703.11 1744.57C4713.88 1677.32 4722.01 1608.75 4729.48 1545.01V1541.27C4734.99 1502.73 4755.16 1467.8 4785.8 1443.78C4816.44 1419.76 4855.18 1408.51 4893.92 1412.36C4932.66 1416.22 4968.42 1434.89 4993.72 1464.48C5019.02 1494.07 5031.92 1532.29 5029.71 1571.16H5032.35Z" fill="#0A5F59"/>
<path d="M3953.2 2608.78L3843.3 2615.59L3931.22 2817.79C3931.22 2817.79 4121.33 2813.62 4117.38 2719.99L4083.09 2676.03C4067.4 2656.3 4047.71 2640.11 4025.33 2628.52C4002.94 2616.93 3978.36 2610.2 3953.2 2608.78Z" fill="#FF8B7B"/>
<path d="M3722.86 2632.3L3817.81 2818.23H3931L3843.08 2616.03L3722.86 2632.3Z" fill="#FF8B7B"/>
<path d="M5016.53 1259.5L5229.06 1215.55L5398.3 1191.15C5422.48 1187.2 5447.04 1186.09 5471.48 1187.85C5536.43 1193.74 5598.03 1219.31 5648.07 1261.13C5698.1 1302.96 5734.18 1359.05 5751.49 1421.93C5793.91 1575.78 5832.16 1764.57 5861.39 1931.83C5902.27 2164.15 5923.37 2513.17 5927.32 2830.54H4920.48C4898.5 2255.8 4776.3 1885.46 4734.76 1655.78C4722.25 1586.44 4732.87 1514.91 4765 1452.2C4797.13 1389.5 4848.98 1339.09 4912.57 1308.74L5016.53 1259.5Z" fill="#0A5F59"/>
<path d="M4920.48 1385.88C4922.9 1480.39 4942.46 1817.32 5043.78 2008.76C5061.58 1829.41 5274.56 1283.46 5274.56 1283.46L4920.48 1385.88Z" fill="#F1EEEE"/>
<path opacity="0.3" d="M5884.46 2089.64C5884.46 2086.12 5884.47 2082.83 5883.15 2079.09L5881.17 2063.27C5880.07 2054.69 5878.97 2046.12 5877.87 2037.99L5874.57 2014.47L5871.28 1992.49C5871.28 1986.34 5869.3 1979.97 5868.42 1974.03C5866.22 1959.97 5864.02 1946.34 5861.61 1932.93C5854.35 1891.83 5846.66 1849.19 5838.31 1806.33V1802.82C5829.96 1758.86 5821.39 1716.44 5812.15 1673.58V1670.73C5808.42 1652.26 5804.46 1634.24 5800.29 1616L5795.67 1595.78L5787.76 1560.83L5781.16 1533.58L5779.85 1527.86C5771.05 1491.82 5762.04 1456.43 5752.81 1423.03L5600.06 1342.58C5617.64 1410.06 5634.35 1484.35 5650.17 1560.39C5631.89 1569.96 5615.03 1582.02 5600.06 1596.22C5563.58 1628.75 5564.89 1697.98 5601.38 1779.96C5702.37 2014.38 5758.3 2265.73 5766.22 2520.86C5770.83 2624.38 5773.69 2729.22 5775.01 2830.98H5928.86C5924.47 2578.89 5910.4 2307.23 5884.46 2089.64Z" fill="black"/>
<path d="M5149.94 835.974L5063.56 967.846L4946.19 1146.97C4961.3 1162.36 4973.58 1180.29 4982.46 1199.94C5004.44 1243.9 5021.58 1275.55 4930.81 1337.31C4911.47 1350.5 4910.81 1371.38 4915.2 1394.45C4920.48 1422.59 4937.18 1452.04 5034.77 1434.67C5129.08 1416.53 5215.15 1368.8 5280.49 1298.41C5313.02 1265.66 5305.55 1241.26 5274.12 1207.41C5185.32 1111.81 5158.73 959.055 5149.94 835.974Z" fill="#FF8B7B"/>
<path d="M4942.46 1437.97L5004.66 1477.09L5105.76 1434.23C5081.93 1410.18 5051.2 1394.13 5017.84 1388.3C4988.78 1397.94 4962.78 1415.07 4942.46 1437.97Z" fill="#263238"/>
<path d="M5016.75 1388.3C5063.12 1407.42 5086.42 1450.5 5107.52 1500.17C5107.52 1500.17 5329.72 1331.81 5334.34 1220.82C5322.47 1183.02 5266.86 1189.61 5266.86 1189.61C5266.86 1189.61 5199.17 1306.98 5016.75 1388.3Z" fill="white"/>
<path d="M5016.75 1388.3C4995.08 1397.07 4976.67 1412.35 4964.07 1432.04C4951.47 1451.73 4945.3 1474.84 4946.41 1498.19C4946.41 1498.19 4847.51 1382.15 4927.95 1294.45C4949.78 1283 4972.97 1274.36 4996.96 1268.73C4996.96 1268.73 4972.79 1317.09 5016.75 1388.3Z" fill="white"/>
<path d="M5024.22 1458.85H4995.87C4986.63 1474.68 4973.89 1680.84 4968.83 1790.51C4982.42 1854.54 5002.37 1917.05 5028.39 1977.11C5028.31 1977.84 5028.31 1978.58 5028.39 1979.31C5029.93 1982.82 5031.47 1986.12 5033.23 1989.42C5036.31 1996.01 5039.38 2002.6 5042.9 2008.76C5053.05 1940.67 5068.86 1873.55 5090.15 1808.09C5061.14 1681.06 5024.22 1458.85 5024.22 1458.85Z" fill="#263238"/>
<path opacity="0.2" d="M4975.21 1102.8L5047.3 975.099C5048.61 978.176 5050.37 981.912 5052.13 985.429C5058.45 1001.37 5063.6 1017.75 5067.52 1034.44C5080.7 1091.37 5036.75 1172.25 4988.17 1210.27C4986.2 1206.75 4984.44 1203.02 4982.46 1199.28C4973.81 1180.83 4962.64 1163.67 4949.27 1148.29L4946.41 1146.09L4975.21 1102.8Z" fill="black"/>
<path d="M4623.99 828.501C4606.62 750.477 4730.8 642.561 4730.8 642.561L4583.76 591.351C4517.39 639.044 4560.47 775.093 4623.99 828.501Z" fill="#263238"/>
<path d="M5119.39 602.999C5154.11 798.17 5185.32 910.701 5111.91 1035.32C5088.91 1076.24 5055.15 1110.09 5014.3 1133.2C4973.44 1156.32 4927.04 1167.82 4880.12 1166.46C4833.19 1165.1 4787.54 1150.94 4748.09 1125.5C4708.63 1100.06 4676.89 1064.31 4656.29 1022.13C4573.87 861.249 4531.02 569.372 4698.71 441.236C4734.25 412.584 4776.7 393.776 4821.79 386.696C4866.89 379.616 4913.05 384.514 4955.66 400.898C4998.27 417.282 5035.82 444.577 5064.56 480.048C5093.29 515.519 5112.2 557.919 5119.39 602.999Z" fill="#FF8B7B"/>
<path d="M5122.02 800.369L5029.71 775.093V656.408C5029.71 656.408 4913.01 590.472 4931.03 508.052C4939.97 461.715 4952.54 416.152 4968.61 371.784C4968.61 371.784 5153.67 359.915 5210.38 383.652C5195.69 399.565 5179.74 414.266 5162.68 427.609C5207.06 458.309 5245.12 497.26 5274.78 542.338C5251.6 547.501 5229.94 557.958 5211.48 572.889C5211.48 572.889 5235.65 735.751 5122.02 800.369Z" fill="#263238"/>
<path d="M4909.71 245.186C4977.62 287.825 4938.28 366.069 4938.28 366.069L5120.05 369.805C5110.37 312.441 4952.79 242.329 4909.71 245.186Z" fill="#263238"/>
<path d="M4980.7 548.053C4967.73 584.537 4820.48 629.374 4686.19 633.77C4619.25 632.317 4553.01 619.842 4490.14 596.845C4509.09 577.373 4531.44 561.51 4556.07 550.031C4474.97 530.03 4372.33 458.819 4343.98 400.795C4403.19 379.632 4467.16 375.52 4528.6 388.927C4508.49 371.954 4491.97 351.14 4480.01 327.704C4468.04 304.268 4460.88 278.68 4458.93 252.439C4458.93 252.439 4802.67 388.707 4934.98 332.222C5078.73 270.681 5187.96 386.07 5093.45 473.985C4998.94 561.899 4980.7 548.053 4980.7 548.053Z" fill="#263238"/>
<path d="M5224.44 744.322C5226.32 787.368 5212.31 829.602 5185.1 863.007C5149.5 905.426 5094.11 871.579 5081.36 819.05C5069.93 771.356 5084.88 697.727 5131.69 674.87C5178.51 652.012 5222.03 690.914 5224.44 744.322Z" fill="#FF8B7B"/>
<path d="M4822.23 784.543C4827.07 799.928 4822.23 815.094 4813.44 818.83C4804.65 822.566 4791.46 812.896 4786.41 796.851C4781.35 780.807 4786.41 766.301 4795.2 762.565C4803.99 758.828 4817.18 768.279 4822.23 784.543Z" fill="#263238"/>
<path d="M4651.9 846.084C4656.73 861.25 4651.9 876.635 4643.11 880.151C4634.32 883.668 4621.13 874.437 4616.07 858.172C4611.02 841.908 4616.07 827.622 4624.86 824.105C4633.66 820.589 4646.84 830.699 4651.9 846.084Z" fill="#263238"/>
<path d="M4710.14 837.952C4710.86 883.437 4705.54 928.816 4694.32 972.901C4705.47 975.274 4717.01 975.144 4728.11 972.522C4739.21 969.9 4749.58 964.85 4758.5 957.736L4710.14 837.952Z" fill="#A02724"/>
<path d="M4814.32 1016.42C4831.97 1010.5 4848.26 1001.12 4862.22 988.811C4876.19 976.506 4887.55 961.531 4895.64 944.769C4896.08 943.601 4896.05 942.309 4895.56 941.162C4895.07 940.015 4894.15 939.102 4893.01 938.615C4892.44 938.361 4891.84 938.223 4891.22 938.207C4890.6 938.192 4889.99 938.3 4889.42 938.526C4888.84 938.751 4888.32 939.089 4887.88 939.519C4887.44 939.95 4887.09 940.465 4886.85 941.033C4877.93 959.209 4864.94 975.088 4848.9 987.437C4832.85 999.786 4814.18 1008.27 4794.32 1012.24C4793.71 1012.37 4793.12 1012.62 4792.61 1012.98C4792.1 1013.35 4791.66 1013.81 4791.33 1014.34C4791 1014.88 4790.79 1015.47 4790.69 1016.1C4790.6 1016.72 4790.64 1017.35 4790.8 1017.96C4791.07 1019.15 4791.79 1020.19 4792.82 1020.85C4793.85 1021.51 4795.1 1021.74 4796.3 1021.47C4802.41 1020.18 4808.43 1018.49 4814.32 1016.42Z" fill="#263238"/>
<path d="M4860.04 694.431C4861.39 693.625 4862.53 692.491 4863.33 691.134C4864.03 690.115 4864.51 688.967 4864.76 687.758C4865 686.548 4865 685.303 4864.75 684.094C4864.51 682.885 4864.02 681.738 4863.32 680.72C4862.63 679.702 4861.73 678.834 4860.7 678.167C4848.34 669.899 4834.15 664.776 4819.37 663.244C4804.58 661.712 4789.65 663.817 4775.86 669.375C4774.73 669.909 4773.72 670.66 4772.89 671.584C4772.05 672.508 4771.41 673.588 4770.99 674.761C4770.57 675.935 4770.39 677.179 4770.45 678.423C4770.51 679.668 4770.82 680.887 4771.35 682.013C4771.89 683.139 4772.64 684.148 4773.56 684.984C4774.49 685.819 4775.56 686.465 4776.74 686.883C4777.91 687.302 4779.16 687.485 4780.4 687.422C4781.64 687.36 4782.86 687.053 4783.99 686.519C4794.77 682.337 4806.39 680.832 4817.88 682.134C4829.36 683.435 4840.36 687.504 4849.93 693.992C4851.4 695.016 4853.13 695.601 4854.92 695.679C4856.71 695.756 4858.48 695.324 4860.04 694.431Z" fill="#263238"/>
<path d="M4618.05 753.554C4618.47 752.044 4618.47 750.448 4618.05 748.938C4617.08 746.643 4615.24 744.825 4612.94 743.878C4610.63 742.931 4608.05 742.933 4605.74 743.883C4591.9 749.257 4579.6 757.968 4569.94 769.242C4560.28 780.515 4553.55 794.001 4550.36 808.501C4550.3 810.778 4551.07 813 4552.52 814.756C4553.97 816.513 4556 817.686 4558.25 818.061C4560.5 818.435 4562.8 817.986 4564.75 816.794C4566.69 815.603 4568.13 813.751 4568.82 811.578C4571.56 800.271 4576.98 789.792 4584.63 781.03C4592.29 772.268 4601.94 765.481 4612.78 761.247C4614.25 760.53 4615.5 759.445 4616.43 758.096C4617.35 756.748 4617.91 755.183 4618.05 753.554Z" fill="#263238"/>
<path d="M5704.68 1327.42C5728.86 1357.31 5749.96 1384.34 5770.62 1413.14C5791.28 1441.93 5812.81 1470.5 5833.04 1499.73C5874.14 1557.98 5912.38 1618.42 5949.74 1679.96C5987.11 1741.5 6021.83 1805.68 6053.04 1873.59C6086.92 1944.05 6113.79 2017.66 6133.26 2093.38C6144.2 2137.39 6149.95 2182.54 6150.41 2227.89C6149.86 2273.23 6143.36 2318.31 6131.07 2361.96C6109.18 2437.95 6077.25 2510.68 6036.12 2578.23C6017.22 2610.54 5996.78 2641.53 5975.46 2671.42C5954.14 2701.31 5931.5 2730.32 5909.52 2758.23C5863.64 2814.36 5813.77 2867.1 5760.29 2916.04C5746.9 2927.97 5729.71 2934.73 5711.79 2935.13C5693.86 2935.52 5676.39 2929.52 5662.5 2918.19C5648.6 2906.86 5639.2 2890.96 5635.97 2873.32C5632.75 2855.69 5635.91 2837.48 5644.9 2821.97L5646.88 2818.67C5715.13 2707.94 5774.79 2592.14 5825.34 2472.29C5848.03 2418.27 5864.54 2361.87 5874.57 2304.15C5878.25 2280.97 5879.21 2257.44 5877.43 2234.04C5874.79 2210.88 5869.78 2188.05 5862.49 2165.91C5843.48 2109.71 5819.57 2055.29 5791.06 2003.26C5761.82 1948.1 5728.86 1893.37 5693.69 1837.76C5658.52 1782.16 5621.6 1727.87 5583.8 1674.46L5525.99 1594.02C5506.65 1567.87 5486.43 1539.95 5468.19 1516L5466.87 1514.24C5442.1 1482.82 5430.82 1442.85 5435.52 1403.11C5440.22 1363.38 5460.51 1327.14 5491.93 1302.36C5523.34 1277.59 5563.32 1266.31 5603.05 1271.01C5642.79 1275.71 5679.03 1296 5703.8 1327.42H5704.68Z" fill="#0A5F59"/>
<path d="M3610.55 2948.79L5480.5 2864.17C5486.4 2863.78 5492.31 2864.59 5497.89 2866.54C5503.47 2868.5 5508.6 2871.55 5512.97 2875.54C5517.34 2879.52 5520.86 2884.34 5523.33 2889.71C5525.79 2895.08 5527.15 2900.9 5527.31 2906.81L3567.91 2994.72C3567.64 2988.9 3568.54 2983.07 3570.55 2977.6C3572.56 2972.12 3575.63 2967.1 3579.6 2962.82C3583.57 2958.55 3588.35 2955.1 3593.66 2952.69C3598.98 2950.29 3604.72 2948.96 3610.55 2948.79Z" fill="#0A5F59"/>
<g opacity="0.6">
<path d="M3610.55 2948.79L5480.5 2864.17C5486.4 2863.78 5492.31 2864.59 5497.89 2866.54C5503.47 2868.5 5508.6 2871.55 5512.97 2875.54C5517.34 2879.52 5520.86 2884.34 5523.33 2889.71C5525.79 2895.08 5527.15 2900.9 5527.31 2906.81L3567.91 2994.72C3567.64 2988.9 3568.54 2983.07 3570.55 2977.6C3572.56 2972.12 3575.63 2967.1 3579.6 2962.82C3583.57 2958.55 3588.35 2955.1 3593.66 2952.69C3598.98 2950.29 3604.72 2948.96 3610.55 2948.79Z" fill="white"/>
</g>
<path d="M3312.95 2081.29L4643.33 2021.07C4651.86 2021.18 4660.15 2023.92 4667.07 2028.92C4674 2033.91 4679.21 2040.92 4682.01 2048.98L4937.4 2859.33C4938.78 2862.68 4939.3 2866.32 4938.94 2869.92C4938.57 2873.52 4937.32 2876.97 4935.3 2879.97C4933.28 2882.97 4930.54 2885.43 4927.35 2887.12C4924.15 2888.81 4920.58 2889.68 4916.96 2889.67L3586.59 2949.89C3578.1 2949.81 3569.85 2947.1 3562.96 2942.14C3556.08 2937.18 3550.89 2930.22 3548.13 2922.19L3292.73 2111.62C3291.37 2108.29 3290.84 2104.67 3291.19 2101.09C3291.55 2097.51 3292.78 2094.07 3294.78 2091.07C3296.77 2088.08 3299.48 2085.62 3302.65 2083.91C3305.81 2082.21 3309.35 2081.31 3312.95 2081.29Z" fill="#0A5F59"/>
<path opacity="0.6" d="M3312.95 2081.29L4643.33 2021.07C4651.86 2021.18 4660.15 2023.92 4667.07 2028.92C4674 2033.91 4679.21 2040.92 4682.01 2048.98L4937.4 2859.33C4938.78 2862.68 4939.3 2866.32 4938.94 2869.92C4938.57 2873.52 4937.32 2876.97 4935.3 2879.97C4933.28 2882.97 4930.54 2885.43 4927.35 2887.12C4924.15 2888.81 4920.58 2889.68 4916.96 2889.67L3586.59 2949.89C3578.1 2949.81 3569.85 2947.1 3562.96 2942.14C3556.08 2937.18 3550.89 2930.22 3548.13 2922.19L3292.73 2111.62C3291.37 2108.29 3290.84 2104.67 3291.19 2101.09C3291.55 2097.51 3292.78 2094.07 3294.78 2091.07C3296.77 2088.08 3299.48 2085.62 3302.65 2083.91C3305.81 2082.21 3309.35 2081.31 3312.95 2081.29Z" fill="white"/>
<path opacity="0.5" d="M4682.45 2048.76L4937.84 2859.12C4939.26 2862.47 4939.83 2866.13 4939.48 2869.76C4939.14 2873.39 4937.9 2876.88 4935.87 2879.91C4933.84 2882.94 4931.09 2885.42 4927.87 2887.12C4924.64 2888.82 4921.05 2889.7 4917.4 2889.67L4643.77 2020.85C4652.3 2020.96 4660.59 2023.7 4667.51 2028.7C4674.43 2033.69 4679.65 2040.7 4682.45 2048.76Z" fill="#0A5F59"/>
<path opacity="0.5" d="M4988.83 2886.37L5480.5 2864.39C5486.4 2864 5492.31 2864.81 5497.89 2866.76C5503.47 2868.72 5508.6 2871.77 5512.97 2875.75C5517.34 2879.74 5520.86 2884.56 5523.33 2889.93C5525.79 2895.3 5527.15 2901.12 5527.31 2907.03L4946.19 2933.18C4945.81 2927.28 4946.61 2921.37 4948.57 2915.79C4950.52 2910.21 4953.58 2905.08 4957.56 2900.71C4961.54 2896.34 4966.36 2892.82 4971.73 2890.35C4977.11 2887.89 4982.92 2886.53 4988.83 2886.37Z" fill="#0A5F59"/>
<path d="M5609.95 2812.74L5484.23 2830.98L5613.03 3010.11C5613.03 3010.11 5817.65 2977.36 5793.91 2886.59L5749.96 2850.1C5730.53 2834.43 5708.03 2823.01 5683.92 2816.57C5659.8 2810.14 5634.6 2808.83 5609.95 2812.74Z" fill="#FF8B7B"/>
<path d="M5330.38 2884.61L5487.97 3021.98L5613.03 3010.11L5484.23 2830.98L5330.38 2884.61Z" fill="#FF8B7B"/>
</svg>
