<svg width="198" height="198" viewBox="0 0 198 198" fill="none" xmlns="http://www.w3.org/2000/svg">
<path d="M133.567 16.5H64.4325C34.4025 16.5 16.5 34.4025 16.5 64.4325V133.485C16.5 163.598 34.4025 181.5 64.4325 181.5H133.485C163.515 181.5 181.417 163.598 181.417 133.568V64.4325C181.5 34.4025 163.597 16.5 133.567 16.5ZM94.875 142.313C94.875 145.283 91.905 147.262 89.1825 146.107C79.2 141.817 66.165 137.858 57.09 136.703L55.5225 136.537C50.49 135.877 46.365 131.175 46.365 126.06V62.535C46.365 56.1825 51.48 51.48 57.75 51.975C68.0625 52.8 83.325 57.75 92.895 63.195C94.215 63.9375 94.875 65.34 94.875 66.7425V142.313ZM151.635 125.978C151.635 131.093 147.51 135.795 142.477 136.455L140.745 136.62C131.752 137.857 118.8 141.735 108.817 145.943C106.095 147.098 103.125 145.117 103.125 142.147V66.66C103.125 65.175 103.867 63.7725 105.187 63.03C114.757 57.6675 129.69 52.8825 139.838 51.975H140.167C146.52 51.975 151.635 57.09 151.635 63.4425V125.978Z" fill="#0A5F59"/>
</svg>
